<svg width="79" height="24" viewBox="0 0 79 24" fill="none" xmlns="http://www.w3.org/2000/svg">
<path d="M4.631 16.088C4.04433 16.088 3.498 15.989 2.992 15.791C2.49333 15.593 2.06067 15.318 1.694 14.966C1.32733 14.6067 1.04133 14.1887 0.836 13.712C0.630667 13.2353 0.528 12.7147 0.528 12.15C0.528 11.5853 0.630667 11.0647 0.836 10.588C1.04133 10.1113 1.32733 9.697 1.694 9.345C2.06067 8.98567 2.49333 8.707 2.992 8.509C3.49067 8.311 4.037 8.212 4.631 8.212C5.21767 8.212 5.75667 8.311 6.248 8.509C6.74667 8.69967 7.17933 8.97467 7.546 9.334C7.92 9.686 8.206 10.1003 8.404 10.577C8.60933 11.0537 8.712 11.578 8.712 12.15C8.712 12.722 8.60933 13.2463 8.404 13.723C8.206 14.1997 7.92 14.6177 7.546 14.977C7.17933 15.329 6.74667 15.604 6.248 15.802C5.75667 15.9927 5.21767 16.088 4.631 16.088ZM4.631 15.109C5.05633 15.109 5.44867 15.0357 5.808 14.889C6.17467 14.7423 6.49 14.537 6.754 14.273C7.02533 14.0017 7.23433 13.6863 7.381 13.327C7.535 12.9677 7.612 12.5753 7.612 12.15C7.612 11.7247 7.535 11.3323 7.381 10.973C7.23433 10.6137 7.02533 10.302 6.754 10.038C6.49 9.76667 6.17467 9.55767 5.808 9.411C5.44867 9.26433 5.05633 9.191 4.631 9.191C4.19833 9.191 3.79867 9.26433 3.432 9.411C3.07267 9.55767 2.75733 9.76667 2.486 10.038C2.21467 10.302 2.002 10.6137 1.848 10.973C1.70133 11.3323 1.628 11.7247 1.628 12.15C1.628 12.5753 1.70133 12.9677 1.848 13.327C2.002 13.6863 2.21467 14.0017 2.486 14.273C2.75733 14.537 3.07267 14.7423 3.432 14.889C3.79867 15.0357 4.19833 15.109 4.631 15.109ZM17.5323 10.115C18.0016 10.115 18.4159 10.2067 18.7753 10.39C19.1346 10.5733 19.4133 10.852 19.6113 11.226C19.8166 11.6 19.9193 12.073 19.9193 12.645V16H18.8633V12.766C18.8633 12.2013 18.7313 11.776 18.4673 11.49C18.2033 11.204 17.8329 11.061 17.3563 11.061C17.0043 11.061 16.6963 11.1343 16.4323 11.281C16.1683 11.4277 15.9629 11.644 15.8163 11.93C15.6769 12.216 15.6073 12.5717 15.6073 12.997V16H14.5513V12.766C14.5513 12.2013 14.4193 11.776 14.1553 11.49C13.8986 11.204 13.5283 11.061 13.0443 11.061C12.6996 11.061 12.3953 11.1343 12.1313 11.281C11.8673 11.4277 11.6619 11.644 11.5153 11.93C11.3686 12.216 11.2953 12.5717 11.2953 12.997V16H10.2393V10.17H11.2513V11.721L11.0863 11.325C11.2696 10.9437 11.5519 10.6467 11.9333 10.434C12.3146 10.2213 12.7583 10.115 13.2643 10.115C13.8216 10.115 14.3019 10.2543 14.7053 10.533C15.1086 10.8043 15.3726 11.2187 15.4973 11.776L15.0683 11.6C15.2443 11.1527 15.5523 10.7933 15.9923 10.522C16.4323 10.2507 16.9456 10.115 17.5323 10.115ZM24.9753 10.115C25.452 10.115 25.87 10.2067 26.2293 10.39C26.596 10.5733 26.882 10.852 27.0873 11.226C27.2927 11.6 27.3953 12.073 27.3953 12.645V16H26.3393V12.766C26.3393 12.2013 26.2 11.776 25.9213 11.49C25.65 11.204 25.265 11.061 24.7663 11.061C24.3923 11.061 24.066 11.1343 23.7873 11.281C23.5087 11.4277 23.2923 11.644 23.1383 11.93C22.9917 12.216 22.9183 12.5717 22.9183 12.997V16H21.8623V10.17H22.8743V11.743L22.7093 11.325C22.9 10.9437 23.1933 10.6467 23.5893 10.434C23.9853 10.2213 24.4473 10.115 24.9753 10.115ZM29.3496 16V10.17H30.4056V16H29.3496ZM29.8776 9.048C29.6723 9.048 29.5 8.982 29.3606 8.85C29.2286 8.718 29.1626 8.55667 29.1626 8.366C29.1626 8.168 29.2286 8.003 29.3606 7.871C29.5 7.739 29.6723 7.673 29.8776 7.673C30.083 7.673 30.2516 7.739 30.3836 7.871C30.523 7.99567 30.5926 8.15333 30.5926 8.344C30.5926 8.542 30.5266 8.71067 30.3946 8.85C30.2626 8.982 30.0903 9.048 29.8776 9.048ZM35.5129 16.066C35.0142 16.066 34.5632 15.956 34.1599 15.736C33.7639 15.5087 33.4486 15.175 33.2139 14.735C32.9866 14.295 32.8729 13.745 32.8729 13.085C32.8729 12.425 32.9902 11.875 33.2249 11.435C33.4669 10.995 33.7859 10.665 34.1819 10.445C34.5852 10.225 35.0289 10.115 35.5129 10.115C36.0849 10.115 36.5909 10.2397 37.0309 10.489C37.4709 10.7383 37.8192 11.0867 38.0759 11.534C38.3326 11.974 38.4609 12.491 38.4609 13.085C38.4609 13.679 38.3326 14.1997 38.0759 14.647C37.8192 15.0943 37.4709 15.4427 37.0309 15.692C36.5909 15.9413 36.0849 16.066 35.5129 16.066ZM32.4219 16V7.838H33.4779V11.721L33.3679 13.074L33.4339 14.427V16H32.4219ZM35.4249 15.142C35.7989 15.142 36.1326 15.0577 36.4259 14.889C36.7266 14.7203 36.9612 14.482 37.1299 14.174C37.3059 13.8587 37.3939 13.4957 37.3939 13.085C37.3939 12.667 37.3059 12.3077 37.1299 12.007C36.9612 11.699 36.7266 11.4607 36.4259 11.292C36.1326 11.1233 35.7989 11.039 35.4249 11.039C35.0582 11.039 34.7246 11.1233 34.4239 11.292C34.1306 11.4607 33.8959 11.699 33.7199 12.007C33.5512 12.3077 33.4669 12.667 33.4669 13.085C33.4669 13.4957 33.5512 13.8587 33.7199 14.174C33.8959 14.482 34.1306 14.7203 34.4239 14.889C34.7246 15.0577 35.0582 15.142 35.4249 15.142ZM43.4852 16V14.768L43.4302 14.537V12.436C43.4302 11.9887 43.2982 11.644 43.0342 11.402C42.7776 11.1527 42.3889 11.028 41.8682 11.028C41.5236 11.028 41.1862 11.0867 40.8562 11.204C40.5262 11.314 40.2476 11.4643 40.0202 11.655L39.5802 10.863C39.8809 10.621 40.2402 10.4377 40.6582 10.313C41.0836 10.181 41.5272 10.115 41.9892 10.115C42.7886 10.115 43.4046 10.3093 43.8372 10.698C44.2699 11.0867 44.4862 11.6807 44.4862 12.48V16H43.4852ZM41.5712 16.066C41.1386 16.066 40.7572 15.9927 40.4272 15.846C40.1046 15.6993 39.8552 15.4977 39.6792 15.241C39.5032 14.977 39.4152 14.68 39.4152 14.35C39.4152 14.0347 39.4886 13.7487 39.6352 13.492C39.7892 13.2353 40.0349 13.03 40.3722 12.876C40.7169 12.722 41.1789 12.645 41.7582 12.645H43.6062V13.404H41.8022C41.2742 13.404 40.9186 13.492 40.7352 13.668C40.5519 13.844 40.4602 14.0567 40.4602 14.306C40.4602 14.592 40.5739 14.823 40.8012 14.999C41.0286 15.1677 41.3439 15.252 41.7472 15.252C42.1432 15.252 42.4879 15.164 42.7812 14.988C43.0819 14.812 43.2982 14.5553 43.4302 14.218L43.6392 14.944C43.4999 15.2887 43.2542 15.5637 42.9022 15.769C42.5502 15.967 42.1066 16.066 41.5712 16.066ZM46.4405 16V10.17H47.4525V11.754L47.3535 11.358C47.5148 10.9547 47.7861 10.6467 48.1675 10.434C48.5488 10.2213 49.0181 10.115 49.5755 10.115V11.138C49.5315 11.1307 49.4875 11.127 49.4435 11.127C49.4068 11.127 49.3701 11.127 49.3335 11.127C48.7688 11.127 48.3215 11.2957 47.9915 11.633C47.6615 11.9703 47.4965 12.458 47.4965 13.096V16H46.4405Z" fill="#AAAAAA"/>
<rect x="55" y="1" width="24" height="23" rx="5" fill="#181818"/>
<path d="M61.4054 15C61.0321 15 60.7334 14.8907 60.5094 14.672C60.2908 14.4533 60.1814 14.16 60.1814 13.792C60.1814 13.4027 60.2961 13.1013 60.5254 12.888C60.7601 12.6693 61.1041 12.56 61.5574 12.56H62.0294V11.68H61.5574C61.1041 11.68 60.7601 11.5733 60.5254 11.36C60.2961 11.1413 60.1814 10.8373 60.1814 10.448C60.1814 10.08 60.2908 9.78667 60.5094 9.568C60.7334 9.34933 61.0321 9.24 61.4054 9.24C61.7041 9.24 61.9388 9.296 62.1094 9.408C62.2854 9.52 62.4081 9.66933 62.4774 9.856C62.5521 10.0427 62.5894 10.248 62.5894 10.472V11.136H63.4694V10.472C63.4694 10.248 63.5041 10.0427 63.5734 9.856C63.6481 9.66933 63.7708 9.52 63.9414 9.408C64.1174 9.296 64.3548 9.24 64.6534 9.24C65.0268 9.24 65.3228 9.34933 65.5414 9.568C65.7654 9.78667 65.8774 10.08 65.8774 10.448C65.8774 10.8373 65.7628 11.1413 65.5334 11.36C65.3041 11.5733 64.9601 11.68 64.5014 11.68H64.0294V12.56H64.5014C64.9601 12.56 65.3041 12.6693 65.5334 12.888C65.7628 13.1013 65.8774 13.4027 65.8774 13.792C65.8774 14.16 65.7654 14.4533 65.5414 14.672C65.3228 14.8907 65.0268 15 64.6534 15C64.3548 15 64.1174 14.944 63.9414 14.832C63.7708 14.72 63.6481 14.5707 63.5734 14.384C63.5041 14.1973 63.4694 13.992 63.4694 13.768V13.104H62.5894V13.768C62.5894 13.992 62.5521 14.1973 62.4774 14.384C62.4081 14.5707 62.2854 14.72 62.1094 14.832C61.9388 14.944 61.7041 15 61.4054 15ZM64.0294 10.456V11.136H64.5014C64.7841 11.136 64.9894 11.08 65.1174 10.968C65.2454 10.8507 65.3094 10.6773 65.3094 10.448C65.3094 10.2133 65.2454 10.0453 65.1174 9.944C64.9948 9.84267 64.8401 9.792 64.6534 9.792C64.4454 9.792 64.2881 9.85333 64.1814 9.976C64.0801 10.0933 64.0294 10.2533 64.0294 10.456ZM61.5574 11.136H62.0294V10.456C62.0294 10.2533 61.9761 10.0933 61.8694 9.976C61.7681 9.85333 61.6134 9.792 61.4054 9.792C61.2188 9.792 61.0614 9.84267 60.9334 9.944C60.8108 10.0453 60.7494 10.2133 60.7494 10.448C60.7494 10.6773 60.8134 10.8507 60.9414 10.968C61.0694 11.08 61.2748 11.136 61.5574 11.136ZM62.5894 12.56H63.4694V11.68H62.5894V12.56ZM61.4054 14.448C61.6134 14.448 61.7681 14.3893 61.8694 14.272C61.9761 14.1493 62.0294 13.9867 62.0294 13.784V13.104H61.5574C61.2748 13.104 61.0694 13.1627 60.9414 13.28C60.8134 13.392 60.7494 13.5627 60.7494 13.792C60.7494 14.0267 60.8108 14.1947 60.9334 14.296C61.0614 14.3973 61.2188 14.448 61.4054 14.448ZM64.0294 13.784C64.0294 13.9867 64.0801 14.1493 64.1814 14.272C64.2881 14.3893 64.4454 14.448 64.6534 14.448C64.8401 14.448 64.9948 14.3973 65.1174 14.296C65.2454 14.1947 65.3094 14.0267 65.3094 13.792C65.3094 13.5627 65.2454 13.392 65.1174 13.28C64.9894 13.1627 64.7841 13.104 64.5014 13.104H64.0294V13.784ZM70.6491 15.048C70.2277 15.048 69.8357 14.9787 69.4731 14.84C69.1157 14.696 68.8037 14.496 68.5371 14.24C68.2757 13.9787 68.0704 13.6773 67.9211 13.336C67.7771 12.9893 67.7051 12.6107 67.7051 12.2C67.7051 11.7893 67.7771 11.4133 67.9211 11.072C68.0704 10.7253 68.2757 10.424 68.5371 10.168C68.8037 9.90667 69.1157 9.70667 69.4731 9.568C69.8304 9.424 70.2224 9.352 70.6491 9.352C71.0704 9.352 71.4597 9.424 71.8171 9.568C72.1744 9.70667 72.4837 9.904 72.7451 10.16C73.0117 10.416 73.2171 10.7173 73.3611 11.064C73.5104 11.4107 73.5851 11.7893 73.5851 12.2C73.5851 12.6107 73.5104 12.9893 73.3611 13.336C73.2171 13.6827 73.0117 13.984 72.7451 14.24C72.4837 14.496 72.1744 14.696 71.8171 14.84C71.4597 14.9787 71.0704 15.048 70.6491 15.048ZM70.6491 14.52C70.9851 14.52 71.2944 14.464 71.5771 14.352C71.8651 14.2347 72.1131 14.072 72.3211 13.864C72.5344 13.6507 72.6997 13.4053 72.8171 13.128C72.9344 12.8453 72.9931 12.536 72.9931 12.2C72.9931 11.864 72.9344 11.5573 72.8171 11.28C72.6997 10.9973 72.5344 10.752 72.3211 10.544C72.1131 10.3307 71.8651 10.168 71.5771 10.056C71.2944 9.93867 70.9851 9.88 70.6491 9.88C70.3131 9.88 70.0011 9.93867 69.7131 10.056C69.4251 10.168 69.1744 10.3307 68.9611 10.544C68.7531 10.752 68.5877 10.9973 68.4651 11.28C68.3477 11.5573 68.2891 11.864 68.2891 12.2C68.2891 12.5307 68.3477 12.8373 68.4651 13.12C68.5877 13.4027 68.7531 13.6507 68.9611 13.864C69.1744 14.072 69.4251 14.2347 69.7131 14.352C70.0011 14.464 70.3131 14.52 70.6491 14.52Z" fill="#888888"/>
</svg>
