<svg width="18" height="18" viewBox="0 0 18 18" fill="none" xmlns="http://www.w3.org/2000/svg">
<path d="M3.52146 1.8185C4.90407 0.76505 6.48271 0.159176 8.20568 0.0206975C8.95161 -0.0392395 9.92601 0.0335167 10.6915 0.206332C12.7883 0.679702 14.6721 2.00917 15.8671 3.85889C16.3588 4.62 16.8273 5.74836 17.0134 6.6194C17.2197 7.58539 17.2684 8.72169 17.1205 9.12204C17.0239 9.38353 16.7485 9.67887 16.4731 9.81625L16.2864 9.90931H6.50742L6.29662 9.80918C6.02818 9.68167 5.799 9.44948 5.67314 9.17752C5.59047 8.99888 5.57431 8.91122 5.57431 8.64171C5.57431 8.35375 5.58737 8.2926 5.69718 8.06662C5.8308 7.79159 6.02175 7.59953 6.2993 7.46097L6.4701 7.3757L10.5105 7.36576C12.7327 7.36027 14.5508 7.34197 14.5508 7.32503C14.5508 7.22973 14.3127 6.45887 14.1985 6.18452C13.6689 4.91189 12.6536 3.82237 11.4343 3.21789C10.6276 2.81803 9.98807 2.64904 9.1167 2.60544C7.80239 2.53964 6.47279 2.91953 5.34701 3.68241C4.1783 4.47445 3.28468 5.67731 2.85604 7.03536C2.62489 7.76773 2.58876 8.03066 2.58854 8.98284C2.58839 9.73117 2.59884 9.88326 2.67524 10.245C3.09141 12.2149 4.3373 13.8421 6.09685 14.7138C7.94307 15.6284 10.1528 15.5788 12.1119 14.5787C12.8289 14.2128 13.2392 13.9055 13.8977 13.2415C14.5776 12.5559 14.7023 12.4824 15.1854 12.4824C15.4494 12.4824 15.538 12.499 15.7134 12.5817C15.9702 12.7026 16.1933 12.9218 16.3313 13.1885C16.4229 13.3657 16.4347 13.429 16.4352 13.7476C16.436 14.2531 16.3548 14.4083 15.7697 15.0216C14.2004 16.6665 12.1655 17.6607 9.85979 17.9093C9.30997 17.9685 7.93546 17.9364 7.4592 17.8532C5.97984 17.5947 4.6852 17.0282 3.48787 16.1153C1.53823 14.6289 0.282933 12.3353 0.0291262 9.79587C-0.030145 9.20285 0.00430825 8.1604 0.102882 7.56478C0.486652 5.24599 1.70018 3.20617 3.52146 1.8185Z" fill="url(#paint0_linear_3621_1770)"/>
<defs>
<linearGradient id="paint0_linear_3621_1770" x1="7.62564" y1="-4.61554" x2="16.1496" y2="-2.41905" gradientUnits="userSpaceOnUse">
<stop stop-color="#333333"/>
<stop offset="1" stop-color="#AEAEAE"/>
</linearGradient>
</defs>
</svg>
