<svg width="962" height="171" viewBox="0 0 962 171" fill="none" xmlns="http://www.w3.org/2000/svg">
<path d="M962 144.955C962 159.141 950.62 170.641 936.581 170.641C922.543 170.641 911.163 159.141 911.163 144.955C911.163 130.769 922.543 119.269 936.581 119.269C950.62 119.269 962 130.769 962 144.955Z" fill="url(#paint0_linear_6_82)"/>
<path d="M451.137 85.6796C451.137 99.8656 439.757 111.366 425.719 111.366C411.68 111.366 400.3 99.8656 400.3 85.6796C400.3 71.4937 411.68 59.9937 425.719 59.9937C439.757 59.9937 451.137 71.4937 451.137 85.6796Z" fill="url(#paint1_linear_6_82)"/>
<path d="M708.728 5.51762C710.31 3.03415 712.516 1.29553 715.343 0.303677C715.837 0.130814 717.61 0.0363159 719.284 0.0935529C721.953 0.185363 722.606 0.357843 724.592 1.49605C727.133 2.95156 728.522 4.54767 729.949 7.64961L730.921 9.76238V161.114L729.949 163.227C728.527 166.319 727.138 167.919 724.592 169.4C722.443 170.651 722.146 170.718 718.747 170.718C715.662 170.718 714.945 170.591 713.566 169.803C711.063 168.371 710.059 167.449 708.728 165.359C706.202 161.394 706.394 164.333 706.394 86.3985C706.394 12.3054 706.202 9.48273 708.728 5.51762Z" fill="url(#paint2_linear_6_82)"/>
<path d="M179.875 64.2968C188.775 29.0899 219.167 3.43734 255.422 0.531422C257.475 0.366888 261.314 0.310126 263.954 0.405685C281.165 1.02789 296.383 6.52576 310.332 17.1615C314.46 20.3096 322.017 28.0994 325.39 32.6834C328.904 37.4588 329.833 39.6383 329.833 43.1014C329.833 48.0188 327.404 51.9665 323.045 54.1349C320.951 55.1771 320.337 55.3146 317.82 55.3057C313.002 55.2884 310.029 53.4591 306.465 48.3198C301.605 41.312 294.064 34.8396 286.173 30.9044C278.516 27.0864 272.158 25.4496 263.598 25.0933C234.992 23.902 209.297 43.9776 203.016 72.4261C198.25 94.0185 205.634 116.873 222.012 131.224C248.069 154.053 286.439 150.471 306.185 123.365C310.155 117.915 312.333 116.379 316.669 115.97C321.608 115.504 326.385 118.175 328.655 122.672C329.027 123.409 329.519 125.044 329.749 126.306C330.57 130.819 328.857 134.538 322.303 142.47C310.577 156.661 294.151 166.186 275.152 169.811C271.395 170.527 269.762 170.625 261.465 170.625C251.069 170.625 247.036 170.133 239.174 167.902C210.542 159.778 187.983 137.016 180.223 108.424C177.915 99.9169 177.409 95.8794 177.398 85.8514C177.387 75.8673 177.751 72.7031 179.875 64.2968Z" fill="url(#paint3_linear_6_82)"/>
<path d="M746.908 64.2968C755.808 29.0899 786.2 3.43734 822.454 0.531422C824.507 0.366888 828.347 0.310126 830.986 0.405685C848.198 1.02789 863.415 6.52576 877.364 17.1615C881.493 20.3096 889.05 28.0994 892.422 32.6834C895.936 37.4588 896.865 39.6383 896.865 43.1014C896.865 48.0188 894.437 51.9665 890.078 54.1349C887.983 55.1771 887.369 55.3146 884.853 55.3057C880.035 55.2884 877.061 53.4591 873.497 48.3198C868.638 41.312 861.096 34.8396 853.205 30.9044C845.549 27.0864 839.19 25.4496 830.631 25.0933C802.024 23.902 776.33 43.9776 770.049 72.4261C765.282 94.0185 772.666 116.873 789.045 131.224C815.102 154.053 853.471 150.471 873.217 123.365C877.187 117.915 879.365 116.379 883.701 115.97C888.64 115.504 893.417 118.175 895.687 122.672C896.059 123.409 896.551 125.044 896.781 126.306C897.602 130.819 895.889 134.538 889.335 142.47C877.609 156.661 861.184 166.186 842.185 169.811C838.428 170.527 836.794 170.625 828.498 170.625C818.102 170.625 814.069 170.133 806.206 167.902C777.575 159.778 755.016 137.016 747.256 108.424C744.947 99.9169 744.442 95.8794 744.43 85.8514C744.419 75.8673 744.783 72.7031 746.908 64.2968Z" fill="url(#paint4_linear_6_82)"/>
<path d="M33.5411 17.635C46.7101 7.62722 61.7462 1.87142 78.1571 0.55587C85.2619 -0.0135312 94.5428 0.677652 101.834 2.3194C121.805 6.81641 139.748 19.4463 151.13 37.0187C155.814 44.2492 160.276 54.9687 162.048 63.2435C164.014 72.4204 164.477 83.2153 163.068 87.0186C162.149 89.5028 159.525 92.3085 156.902 93.6136L155.124 94.4977H61.9816L59.9737 93.5464C57.4169 92.3351 55.2341 90.1293 54.0353 87.5456C53.2478 85.8486 53.0939 85.0158 53.0939 82.4555C53.0939 79.7199 53.2184 79.139 54.2642 76.9921C55.537 74.3794 57.3557 72.5548 59.9993 71.2385L61.6261 70.4284L100.11 70.3339C121.275 70.2818 138.593 70.108 138.593 69.947C138.593 69.0417 136.325 61.7185 135.238 59.1122C130.193 47.0222 120.523 36.6717 108.908 30.9292C101.225 27.1306 95.1339 25.5251 86.8343 25.1109C74.3159 24.4858 61.6517 28.0948 50.9289 35.3422C39.7973 42.8665 31.2857 54.2937 27.2031 67.1952C25.0015 74.1527 24.6573 76.6505 24.6552 85.6963C24.6538 92.8053 24.7533 94.2502 25.481 97.6871C29.4449 116.401 41.3117 131.859 58.071 140.14C75.6558 148.829 96.7025 148.358 115.363 138.857C122.192 135.38 126.1 132.462 132.372 126.154C138.848 119.64 140.036 118.942 144.637 118.942C147.152 118.942 147.995 119.1 149.666 119.885C152.112 121.034 154.237 123.116 155.551 125.65C156.424 127.333 156.536 127.934 156.541 130.961C156.548 135.763 155.776 137.238 150.203 143.065C135.255 158.691 115.874 168.136 93.9121 170.498C88.6751 171.06 75.5832 170.755 71.047 169.965C56.9565 167.509 44.6254 162.127 33.2211 153.455C14.6512 139.334 2.69486 117.545 0.27742 93.42C-0.287124 87.7863 0.041035 77.8831 0.979927 72.2246C4.63524 50.1962 16.1938 30.8178 33.5411 17.635Z" fill="url(#paint5_linear_6_82)"/>
<path fill-rule="evenodd" clip-rule="evenodd" d="M425.897 170.641C471.448 170.641 508.374 132.522 508.374 85.5C508.374 38.4781 471.448 0.359244 425.897 0.359244C380.345 0.359244 343.419 38.4781 343.419 85.5C343.419 132.522 380.345 170.641 425.897 170.641ZM425.897 145.853C458.096 145.853 484.2 118.832 484.2 85.5C484.2 52.168 458.096 25.1471 425.897 25.1471C393.697 25.1471 367.593 52.168 367.593 85.5C367.593 118.832 393.697 145.853 425.897 145.853Z" fill="url(#paint6_linear_6_82)"/>
<path d="M689.244 80.9323C689.193 76.4668 689.118 73.7864 689.019 72.7826C687.171 54.0441 679.135 36.9712 665.869 23.5995C651.225 8.83993 632.626 0.736179 611.86 0.0675017C610.287 0.016789 608.554 -0.00577394 607.205 0.00125443C605.855 -0.00577394 604.123 0.016789 602.55 0.0675017C581.783 0.736179 563.185 8.83993 548.541 23.5995C535.274 36.9712 527.238 54.0441 525.39 72.7826C525.291 73.7864 525.216 76.4668 525.165 80.9323C525.108 82.3947 525.083 83.9481 525.083 85.6622C525.083 86.4319 525.092 87.1991 525.112 87.9637C525.074 95.5369 525.073 105.959 525.108 119.439L525.216 162.132L526.271 164.238C529.103 169.893 535.708 172.44 541.683 170.179C544.496 169.115 547.448 166.131 548.501 163.286L549.257 161.243V84.4223H549.468C549.68 73.191 552.978 62.1241 559.209 52.4268C569.926 35.7481 587.918 25.483 607.205 24.772C626.491 25.483 644.484 35.7481 655.201 52.4268C661.431 62.1241 664.73 73.191 664.942 84.4223H665.152V161.243L665.909 163.286C666.961 166.131 669.913 169.115 672.727 170.179C678.702 172.44 685.307 169.893 688.139 164.238L689.193 162.132L689.302 119.439C689.336 105.959 689.335 95.537 689.298 87.9637C689.317 87.1991 689.327 86.4319 689.327 85.6622C689.327 83.9482 689.301 82.3947 689.244 80.9323Z" fill="url(#paint7_linear_6_82)"/>
<defs>
<linearGradient id="paint0_linear_6_82" x1="292.5" y1="-39.5" x2="776.5" y2="525.5" gradientUnits="userSpaceOnUse">
<stop stop-color="#EEEEEE"/>
<stop offset="1" stop-color="#090909"/>
</linearGradient>
<linearGradient id="paint1_linear_6_82" x1="292.5" y1="-39.5" x2="776.5" y2="525.5" gradientUnits="userSpaceOnUse">
<stop stop-color="#EEEEEE"/>
<stop offset="1" stop-color="#090909"/>
</linearGradient>
<linearGradient id="paint2_linear_6_82" x1="292.5" y1="-39.5" x2="776.5" y2="525.5" gradientUnits="userSpaceOnUse">
<stop stop-color="#EEEEEE"/>
<stop offset="1" stop-color="#090909"/>
</linearGradient>
<linearGradient id="paint3_linear_6_82" x1="292.5" y1="-39.5" x2="776.5" y2="525.5" gradientUnits="userSpaceOnUse">
<stop stop-color="#EEEEEE"/>
<stop offset="1" stop-color="#090909"/>
</linearGradient>
<linearGradient id="paint4_linear_6_82" x1="292.5" y1="-39.5" x2="776.5" y2="525.5" gradientUnits="userSpaceOnUse">
<stop stop-color="#EEEEEE"/>
<stop offset="1" stop-color="#090909"/>
</linearGradient>
<linearGradient id="paint5_linear_6_82" x1="292.5" y1="-39.5" x2="776.5" y2="525.5" gradientUnits="userSpaceOnUse">
<stop stop-color="#EEEEEE"/>
<stop offset="1" stop-color="#090909"/>
</linearGradient>
<linearGradient id="paint6_linear_6_82" x1="292.5" y1="-39.5" x2="776.5" y2="525.5" gradientUnits="userSpaceOnUse">
<stop stop-color="#EEEEEE"/>
<stop offset="1" stop-color="#090909"/>
</linearGradient>
<linearGradient id="paint7_linear_6_82" x1="292.5" y1="-39.5" x2="776.5" y2="525.5" gradientUnits="userSpaceOnUse">
<stop stop-color="#EEEEEE"/>
<stop offset="1" stop-color="#090909"/>
</linearGradient>
</defs>
</svg>
