<svg width="101" height="18" viewBox="0 0 101 18" fill="none" xmlns="http://www.w3.org/2000/svg">
<path d="M101 15.2584C101 16.7517 99.8052 17.9622 98.3313 17.9622C96.8574 17.9622 95.6626 16.7517 95.6626 15.2584C95.6626 13.7651 96.8574 12.5546 98.3313 12.5546C99.8052 12.5546 101 13.7651 101 15.2584Z" fill="url(#paint0_linear_3603_1638)"/>
<path d="M47.3647 9.01891C47.3647 10.5122 46.1699 11.7227 44.696 11.7227C43.2222 11.7227 42.0273 10.5122 42.0273 9.01891C42.0273 7.52565 43.2222 6.31513 44.696 6.31513C46.1699 6.31513 47.3647 7.52565 47.3647 9.01891Z" fill="url(#paint1_linear_3603_1638)"/>
<path d="M74.409 0.580802C74.5751 0.319384 74.8067 0.136372 75.1036 0.031966C75.1554 0.0137698 75.3416 0.00382273 75.5174 0.00984768C75.7976 0.0195119 75.8661 0.0376677 76.0747 0.157479C76.3414 0.310691 76.4873 0.478702 76.6371 0.805222L76.7391 1.02762V16.9594L76.6371 17.1818C76.4877 17.5073 76.3419 17.6757 76.0747 17.8316C75.849 17.9632 75.8178 17.9703 75.461 17.9703C75.1371 17.9703 75.0618 17.957 74.9171 17.874C74.6543 17.7233 74.5488 17.6262 74.409 17.4062C74.1439 16.9888 74.1641 17.2982 74.1641 9.09458C74.1641 1.2953 74.1439 0.998182 74.409 0.580802Z" fill="url(#paint2_linear_3603_1638)"/>
<path d="M18.885 6.76809C19.8194 3.06209 23.0103 0.361826 26.8166 0.0559392C27.0322 0.0386198 27.4353 0.0326448 27.7124 0.0427036C29.5194 0.108199 31.1171 0.686922 32.5816 1.80648C33.015 2.13785 33.8084 2.95783 34.1625 3.44035C34.5315 3.94303 34.629 4.17246 34.629 4.53699C34.629 5.05461 34.374 5.47016 33.9164 5.69841C33.6965 5.80811 33.632 5.82259 33.3678 5.82165C32.862 5.81983 32.5498 5.62728 32.1756 5.0863C31.6654 4.34864 30.8736 3.66732 30.0452 3.25309C29.2413 2.8512 28.5737 2.67891 27.6751 2.6414C24.6717 2.516 21.974 4.62922 21.3146 7.6238C20.8142 9.89668 21.5894 12.3024 23.309 13.813C26.0447 16.2161 30.0731 15.839 32.1462 12.9858C32.563 12.4121 32.7917 12.2504 33.2469 12.2073C33.7655 12.1583 34.267 12.4395 34.5053 12.9129C34.5444 12.9904 34.5961 13.1625 34.6202 13.2954C34.7064 13.7704 34.5265 14.1619 33.8384 14.9968C32.6073 16.4906 30.8828 17.4932 28.8881 17.8748C28.4937 17.9502 28.3222 17.9605 27.4511 17.9605C26.3597 17.9606 25.9362 17.9087 25.1108 17.6739C22.1048 16.8187 19.7363 14.4228 18.9216 11.413C18.6792 10.5176 18.6261 10.0926 18.6249 9.03699C18.6238 7.98604 18.662 7.65296 18.885 6.76809Z" fill="url(#paint3_linear_3603_1638)"/>
<path d="M78.4176 6.76809C79.3519 3.06209 82.5428 0.361826 86.3491 0.0559392C86.5647 0.0386198 86.9678 0.0326448 87.2449 0.0427036C89.0519 0.108199 90.6496 0.686922 92.1141 1.80648C92.5476 2.13785 93.341 2.95783 93.6951 3.44035C94.064 3.94303 94.1615 4.17246 94.1615 4.53699C94.1615 5.05461 93.9065 5.47016 93.4489 5.69841C93.229 5.80811 93.1645 5.82259 92.9004 5.82165C92.3945 5.81983 92.0823 5.62728 91.7081 5.0863C91.198 4.34864 90.4061 3.66732 89.5777 3.25309C88.7738 2.8512 88.1063 2.67891 87.2076 2.6414C84.2042 2.516 81.5065 4.62922 80.8471 7.6238C80.3467 9.89668 81.1219 12.3024 82.8415 13.813C85.5772 16.2161 89.6056 15.839 91.6788 12.9858C92.0956 12.4121 92.3242 12.2504 92.7795 12.2073C93.298 12.1583 93.7995 12.4395 94.0379 12.9129C94.0769 12.9904 94.1286 13.1625 94.1527 13.2954C94.2389 13.7704 94.0591 14.1619 93.3709 14.9968C92.1399 16.4906 90.4154 17.4932 88.4206 17.8748C88.0262 17.9502 87.8547 17.9605 86.9836 17.9605C85.8922 17.9606 85.4688 17.9087 84.6433 17.6739C81.6373 16.8187 79.2688 14.4228 78.4541 11.413C78.2117 10.5176 78.1586 10.0926 78.1575 9.03699C78.1563 7.98604 78.1945 7.65296 78.4176 6.76809Z" fill="url(#paint4_linear_3603_1638)"/>
<path d="M3.52146 1.85632C4.90407 0.802865 6.48271 0.196992 8.20569 0.0585126C8.95161 -0.00142434 9.92601 0.0713318 10.6915 0.244147C12.7883 0.717517 14.6721 2.04698 15.8671 3.89671C16.3588 4.65781 16.8273 5.78618 17.0134 6.65721C17.2197 7.6232 17.2684 8.75951 17.1205 9.15986C17.0239 9.42135 16.7485 9.71668 16.4731 9.85407L16.2864 9.94713H6.50742L6.29662 9.84699C6.02818 9.71948 5.799 9.4873 5.67314 9.21533C5.59047 9.03669 5.57431 8.94904 5.57431 8.67953C5.57431 8.39157 5.58737 8.33042 5.69718 8.10444C5.8308 7.82941 6.02175 7.63734 6.2993 7.49879L6.4701 7.41352L10.5105 7.40357C12.7327 7.39809 14.5508 7.37978 14.5508 7.36284C14.5508 7.26755 14.3127 6.49669 14.1985 6.22234C13.6689 4.94971 12.6536 3.86018 11.4343 3.25571C10.6276 2.85585 9.98808 2.68685 9.1167 2.64325C7.80239 2.57745 6.47279 2.95734 5.34701 3.72023C4.1783 4.51226 3.28468 5.71513 2.85604 7.07318C2.62489 7.80555 2.58876 8.06847 2.58854 9.02066C2.58839 9.76898 2.59884 9.92108 2.67524 10.2829C3.09141 12.2527 4.3373 13.8799 6.09685 14.7516C7.94307 15.6662 10.1528 15.6166 12.1119 14.6165C12.8289 14.2506 13.2392 13.9434 13.8977 13.2794C14.5776 12.5937 14.7023 12.5202 15.1854 12.5202C15.4494 12.5202 15.538 12.5368 15.7134 12.6195C15.9702 12.7405 16.1933 12.9596 16.3313 13.2263C16.4229 13.4035 16.4347 13.4668 16.4352 13.7854C16.436 14.2909 16.3548 14.4461 15.7697 15.0594C14.2004 16.7043 12.1656 17.6986 9.85979 17.9471C9.30997 18.0064 7.93546 17.9743 7.4592 17.891C5.97984 17.6325 4.6852 17.066 3.48787 16.1532C1.53823 14.6667 0.282933 12.3732 0.0291262 9.83368C-0.030145 9.24067 0.00430825 8.19822 0.102882 7.60259C0.486652 5.28381 1.70018 3.24398 3.52146 1.85632Z" fill="url(#paint5_linear_3603_1638)"/>
<path fill-rule="evenodd" clip-rule="evenodd" d="M44.7147 17.9622C49.4971 17.9622 53.374 13.9497 53.374 9C53.374 4.05032 49.4971 0.0378151 44.7147 0.0378151C39.9323 0.0378151 36.0554 4.05032 36.0554 9C36.0554 13.9497 39.9323 17.9622 44.7147 17.9622ZM44.7147 15.3529C48.0954 15.3529 50.8359 12.5086 50.8359 9C50.8359 5.49137 48.0954 2.64706 44.7147 2.64706C41.3341 2.64706 38.5935 5.49137 38.5935 9C38.5935 12.5086 41.3341 15.3529 44.7147 15.3529Z" fill="url(#paint6_linear_3603_1638)"/>
<path d="M72.3635 8.51919C72.3581 8.04914 72.3503 7.76698 72.3399 7.66132C72.1458 5.68885 71.3021 3.89171 69.9093 2.48415C68.3718 0.930519 66.4192 0.0774925 64.2389 0.00710544C64.0738 0.00176726 63.8918 -0.000607783 63.7502 0.000132045C63.6085 -0.000607783 63.4266 0.00176726 63.2614 0.00710544C61.0812 0.0774925 59.1285 0.930519 57.5911 2.48415C56.1983 3.89171 55.3545 5.68885 55.1605 7.66132C55.1501 7.76698 55.1423 8.04914 55.1369 8.51919C55.1309 8.67313 55.1282 8.83665 55.1282 9.01707C55.1282 9.09809 55.1292 9.17885 55.1313 9.25933C55.1273 10.0565 55.1273 11.1535 55.1309 12.5725L55.1423 17.0665L55.253 17.2882C55.5503 17.8835 56.2437 18.1515 56.8711 17.9136C57.1665 17.8016 57.4764 17.4875 57.5869 17.188L57.6663 16.973V8.88655H57.6884C57.7106 7.70432 58.0569 6.53938 58.7111 5.51861C59.8363 3.76296 61.7253 2.68242 63.7502 2.60758C65.7751 2.68242 67.6641 3.76296 68.7893 5.51861C69.4434 6.53938 69.7897 7.70432 69.812 8.88655H69.8341V16.973L69.9135 17.188C70.024 17.4875 70.3339 17.8016 70.6293 17.9136C71.2566 18.1515 71.9501 17.8835 72.2474 17.2882L72.3581 17.0665L72.3695 12.5725C72.3731 11.1535 72.373 10.0565 72.3691 9.25933C72.3711 9.17885 72.3721 9.09809 72.3721 9.01707C72.3721 8.83665 72.3695 8.67313 72.3635 8.51919Z" fill="url(#paint7_linear_3603_1638)"/>
<defs>
<linearGradient id="paint0_linear_3603_1638" x1="44.7625" y1="-4.63107" x2="61.0664" y2="19.9479" gradientUnits="userSpaceOnUse">
<stop stop-color="#333333"/>
<stop offset="1" stop-color="#AEAEAE"/>
</linearGradient>
<linearGradient id="paint1_linear_3603_1638" x1="44.7625" y1="-4.63107" x2="61.0664" y2="19.9479" gradientUnits="userSpaceOnUse">
<stop stop-color="#333333"/>
<stop offset="1" stop-color="#AEAEAE"/>
</linearGradient>
<linearGradient id="paint2_linear_3603_1638" x1="44.7625" y1="-4.63107" x2="61.0664" y2="19.9479" gradientUnits="userSpaceOnUse">
<stop stop-color="#333333"/>
<stop offset="1" stop-color="#AEAEAE"/>
</linearGradient>
<linearGradient id="paint3_linear_3603_1638" x1="44.7625" y1="-4.63107" x2="61.0664" y2="19.9479" gradientUnits="userSpaceOnUse">
<stop stop-color="#333333"/>
<stop offset="1" stop-color="#AEAEAE"/>
</linearGradient>
<linearGradient id="paint4_linear_3603_1638" x1="44.7625" y1="-4.63107" x2="61.0664" y2="19.9479" gradientUnits="userSpaceOnUse">
<stop stop-color="#333333"/>
<stop offset="1" stop-color="#AEAEAE"/>
</linearGradient>
<linearGradient id="paint5_linear_3603_1638" x1="44.7625" y1="-4.63107" x2="61.0664" y2="19.9479" gradientUnits="userSpaceOnUse">
<stop stop-color="#333333"/>
<stop offset="1" stop-color="#AEAEAE"/>
</linearGradient>
<linearGradient id="paint6_linear_3603_1638" x1="44.7625" y1="-4.63107" x2="61.0664" y2="19.9479" gradientUnits="userSpaceOnUse">
<stop stop-color="#333333"/>
<stop offset="1" stop-color="#AEAEAE"/>
</linearGradient>
<linearGradient id="paint7_linear_3603_1638" x1="44.7625" y1="-4.63107" x2="61.0664" y2="19.9479" gradientUnits="userSpaceOnUse">
<stop stop-color="#333333"/>
<stop offset="1" stop-color="#AEAEAE"/>
</linearGradient>
</defs>
</svg>
