<svg width="32" height="33" viewBox="0 0 32 33" fill="none" xmlns="http://www.w3.org/2000/svg">
<path d="M6.54923 3.34514C9.12061 1.40731 12.0566 0.292805 15.2609 0.0380731C16.6482 -0.072181 18.4604 0.0616539 19.8841 0.379547C23.7837 1.25031 27.2872 3.69586 29.5096 7.09843C30.4241 8.49849 31.2955 10.5741 31.6416 12.1764C32.0253 13.9533 32.1157 16.0435 31.8407 16.78C31.6611 17.261 31.1488 17.8043 30.6366 18.057L30.2895 18.2282H12.1025L11.7105 18.044C11.2112 17.8094 10.785 17.3823 10.5509 16.882C10.3972 16.5534 10.3671 16.3922 10.3671 15.8964C10.3671 15.3667 10.3914 15.2542 10.5956 14.8385C10.8441 14.3326 11.1993 13.9793 11.7154 13.7245L12.0331 13.5676L19.5474 13.5493C23.6802 13.5392 27.0617 13.5056 27.0617 13.4744C27.0617 13.2991 26.6188 11.8811 26.4065 11.3764C25.4214 9.03543 23.5333 7.03124 21.2654 5.91931C19.7652 5.18377 18.5758 4.8729 16.9553 4.7927C14.5109 4.67166 12.0381 5.37047 9.94437 6.77379C7.77081 8.23075 6.10885 10.4434 5.31168 12.9415C4.88178 14.2887 4.81459 14.7724 4.81417 16.5239C4.81389 17.9005 4.83333 18.1802 4.97542 18.8457C5.74941 22.4693 8.06652 25.4626 11.3389 27.066C14.7725 28.7484 18.8821 28.6572 22.5258 26.8176C23.8592 26.1443 24.6223 25.5792 25.8469 24.3578C27.1115 23.0966 27.3434 22.9613 28.2418 22.9613C28.7329 22.9613 28.8975 22.9919 29.2239 23.144C29.7014 23.3665 30.1163 23.7696 30.3729 24.2602C30.5434 24.5862 30.5653 24.7026 30.5662 25.2886C30.5676 26.2185 30.4168 26.5041 29.3286 27.6323C26.4099 30.658 22.6255 32.4869 18.3373 32.9441C17.3147 33.0531 14.7584 32.9941 13.8726 32.841C11.1213 32.3655 8.71355 31.3233 6.48675 29.6442C2.8608 26.9099 0.526199 22.6909 0.054169 18.0195C-0.0560637 16.9286 0.00801246 15.0111 0.19134 13.9154C0.905077 9.65 3.162 5.89774 6.54923 3.34514Z" fill="url(#paint0_linear_3038_451)"/>
<defs>
<linearGradient id="paint0_linear_3038_451" x1="3.01746" y1="12.8802" x2="32.0522" y2="27.0623" gradientUnits="userSpaceOnUse">
<stop stop-color="#FC08EA"/>
<stop offset="1" stop-color="#6A08FC"/>
</linearGradient>
</defs>
</svg>
