<svg width="179" height="179" viewBox="0 0 179 179" fill="none" xmlns="http://www.w3.org/2000/svg">
<path d="M120.693 127.73C114.356 152.585 91.955 171.035 65.2494 171.035C33.6411 171.035 7.97183 145.22 7.97183 113.522C7.97183 86.5462 26.586 63.893 51.5777 57.7294V49.4846C22.1617 55.7683 0 82.0636 0 113.482C0 149.623 29.2566 179 65.2494 179C96.3794 179 122.447 156.987 128.904 127.69H120.693V127.73Z" fill="white"/>
<path d="M59.2601 0V36.4583H67.4336V8.12895H170.827V111.001H137.807V119.13H179.001V0H59.2601Z" fill="white"/>
<path d="M59.2601 49.4846V119.13H128.905C128.174 81.0971 97.3333 50.2566 59.2601 49.4846Z" fill="white"/>
</svg>
