<svg width="97" height="25" viewBox="0 0 97 25" fill="none" xmlns="http://www.w3.org/2000/svg">
<path d="M29.0379 18.4451C27.9639 18.4451 27.0224 18.2047 26.2133 17.7239C25.4188 17.2432 24.7936 16.6047 24.3375 15.8085C23.8962 14.9972 23.6755 14.0958 23.6755 13.1042C23.6755 12.1277 23.8888 11.2113 24.3155 10.3549C24.7568 9.48357 25.3673 8.78498 26.1471 8.25916C26.9415 7.71831 27.8683 7.44789 28.9275 7.44789C29.3689 7.44789 29.8323 7.523 30.3178 7.67324C30.8033 7.82347 31.2078 8.15399 31.5315 8.66479C31.5168 8.49953 31.5021 8.34178 31.4874 8.19155C31.4874 8.04131 31.4874 7.92113 31.4874 7.83099C31.4874 7.57559 31.5536 7.34272 31.686 7.13239C31.8184 6.90704 32.0611 6.79437 32.4142 6.79437C32.7673 6.79437 32.9953 6.91455 33.0983 7.15493C33.2013 7.38028 33.2528 7.62066 33.2528 7.87606C33.2528 8.74742 33.2528 9.43099 33.2528 9.92676C33.2675 10.4075 33.2748 10.6854 33.2748 10.7606C33.2748 11.1962 33.2086 11.5042 33.0762 11.6845C32.9585 11.8648 32.7305 11.9549 32.3921 11.9549C32.0685 11.9549 31.8331 11.8723 31.686 11.707C31.5389 11.5418 31.4506 11.3915 31.4212 11.2563C31.3476 10.9559 31.2446 10.6479 31.1122 10.3324C30.9945 10.0169 30.7812 9.75399 30.4723 9.54366C30.178 9.31831 29.722 9.20563 29.1041 9.20563C28.3538 9.20563 27.7359 9.38591 27.2504 9.74648C26.7649 10.092 26.4045 10.5653 26.1691 11.1662C25.9485 11.7521 25.8381 12.4131 25.8381 13.1493C25.8381 14.216 26.0882 15.0723 26.5884 15.7183C27.0886 16.3493 27.9051 16.6648 29.0379 16.6648C29.7882 16.6648 30.3766 16.5446 30.8033 16.3042C31.2446 16.0639 31.6124 15.7709 31.9066 15.4254C32.0685 15.23 32.2303 15.0573 32.3921 14.907C32.5687 14.7568 32.782 14.6817 33.0321 14.6817C33.2822 14.6817 33.4734 14.7568 33.6058 14.907C33.7382 15.0423 33.8044 15.2 33.8044 15.3803C33.8044 15.4554 33.7897 15.5606 33.7603 15.6958C33.7456 15.816 33.7015 15.9361 33.6279 16.0563C33.4366 16.4319 33.1424 16.8075 32.7452 17.1831C32.348 17.5437 31.8404 17.8441 31.2226 18.0845C30.6194 18.3249 29.8912 18.4451 29.0379 18.4451Z" fill="#CCCCCC"/>
<path d="M39.6723 18.5577C38.5542 18.5577 37.5979 18.3249 36.8035 17.8592C36.0091 17.3934 35.3986 16.7549 34.9719 15.9437C34.56 15.1174 34.354 14.1784 34.354 13.1268C34.354 12.0901 34.5674 11.1587 34.994 10.3324C35.4353 9.5061 36.0679 8.86009 36.8918 8.39437C37.7156 7.91361 38.7087 7.67324 39.8709 7.67324C41.0037 7.67324 41.9673 7.92864 42.7617 8.43944C43.5561 8.93521 44.1593 9.59624 44.5712 10.4225C44.9979 11.2338 45.2112 12.1277 45.2112 13.1042C45.2112 14.0207 45.0494 14.8244 44.7257 15.5155C44.4021 16.1915 43.9681 16.7549 43.4237 17.2056C42.8941 17.6563 42.2983 17.9944 41.6363 18.2197C40.989 18.4451 40.3343 18.5577 39.6723 18.5577ZM39.7164 16.7775C40.2166 16.7775 40.7242 16.6423 41.2391 16.3718C41.7687 16.1014 42.2174 15.6883 42.5852 15.1324C42.953 14.5615 43.1369 13.8554 43.1369 13.0141C43.1369 12.323 42.9971 11.707 42.7176 11.1662C42.4528 10.6254 42.0776 10.2047 41.5921 9.90423C41.1067 9.58873 40.5476 9.43099 39.915 9.43099C39.2824 9.43099 38.7013 9.58122 38.1717 9.88169C37.6568 10.1671 37.2449 10.5878 36.9359 11.1437C36.627 11.6845 36.4725 12.338 36.4725 13.1042C36.4725 13.9155 36.6343 14.5915 36.958 15.1324C37.2964 15.6732 37.7156 16.0864 38.2158 16.3718C38.716 16.6423 39.2162 16.7775 39.7164 16.7775Z" fill="#CCCCCC"/>
<path d="M54.5886 19.0085C54.3974 19.0085 54.2061 18.9408 54.0149 18.8056C53.8236 18.6704 53.728 18.4526 53.728 18.1521C53.728 17.8967 53.7868 17.7089 53.9045 17.5887C54.0369 17.4535 54.2061 17.3634 54.4121 17.3183C54.618 17.2732 54.7504 17.1756 54.8093 17.0254C54.8681 16.8751 54.9049 16.6573 54.9196 16.3718C54.9343 16.1615 54.9417 15.9662 54.9417 15.7859C54.9564 15.6056 54.9638 15.3728 54.9638 15.0873C54.9638 14.0958 54.9123 13.2019 54.8093 12.4056C54.721 11.6094 54.5298 10.9784 54.2355 10.5127C53.956 10.0469 53.5294 9.81409 52.9556 9.81409C52.529 9.81409 52.1465 9.92676 51.8081 10.1521C51.4845 10.3775 51.2123 10.6554 50.9916 10.9859C50.771 11.3014 50.5944 11.6169 50.462 11.9324C50.462 11.9324 50.4179 12.0526 50.3296 12.293C50.2561 12.5183 50.1825 12.8038 50.1089 13.1493C50.0354 13.4798 49.9986 13.8028 49.9986 14.1183V16.2366H51.4771C51.7419 16.2366 51.9626 16.2892 52.1391 16.3944C52.3304 16.4845 52.426 16.7249 52.426 17.1155C52.426 17.3709 52.3451 17.5812 52.1833 17.7465C52.0362 17.8967 51.8008 17.9718 51.4771 17.9718H49.4911C49.3292 17.9869 49.1748 17.9944 49.0276 17.9944C48.8805 17.9944 48.7334 17.9944 48.5863 17.9944H47.4388C47.3064 17.9944 47.1446 17.9793 46.9533 17.9493C46.7768 17.9193 46.6223 17.8441 46.4899 17.7239C46.3575 17.6038 46.2913 17.416 46.2913 17.1606C46.2913 16.815 46.3869 16.5897 46.5782 16.4845C46.7841 16.3643 46.9533 16.3042 47.0857 16.3042H47.3284C47.5344 16.3042 47.6742 16.2216 47.7477 16.0563C47.836 15.8761 47.8875 15.6883 47.9022 15.493C47.9316 15.2826 47.9463 15.1474 47.9463 15.0873C47.9463 14.6967 47.9537 14.2385 47.9684 13.7127C47.9978 13.1869 48.0199 12.6535 48.0346 12.1127C48.0493 11.5718 48.0567 11.0836 48.0567 10.6479C48.0567 10.0469 47.9243 9.74648 47.6595 9.74648H46.7768C46.2472 9.74648 45.8573 9.6939 45.6072 9.58873C45.3277 9.49859 45.1879 9.31831 45.1879 9.04789C45.1879 8.83756 45.2615 8.6723 45.4086 8.55211C45.5704 8.4169 45.9161 8.31925 46.4458 8.25916C46.9901 8.18404 47.8286 8.14648 48.9614 8.14648C49.4175 8.14648 49.7044 8.19906 49.8221 8.30422C49.9545 8.39437 50.028 8.61221 50.0427 8.95775L50.1089 10.2648C50.3002 9.78404 50.5871 9.38591 50.9696 9.07042C51.3521 8.73991 51.7787 8.49202 52.2495 8.32676C52.735 8.14648 53.2057 8.05634 53.6618 8.05634C53.956 8.05634 54.287 8.11643 54.6548 8.23662C55.0373 8.34178 55.4051 8.5446 55.7582 8.84507C56.1113 9.14554 56.3981 9.58873 56.6188 10.1746C56.8542 10.7455 56.9719 11.5042 56.9719 12.4507V17.2507H58.1635C58.4725 17.2507 58.7814 17.3033 59.0904 17.4085C59.3993 17.5136 59.5538 17.754 59.5538 18.1296C59.5538 18.43 59.4434 18.6404 59.2228 18.7606C59.0021 18.8958 58.7373 18.9634 58.4283 18.9634C58.1782 18.9634 57.8914 18.9634 57.5677 18.9634C57.244 18.9784 56.8836 18.9859 56.4864 18.9859C56.0892 18.9859 55.7361 18.9859 55.4272 18.9859C55.1182 19.0009 54.8387 19.0085 54.5886 19.0085Z" fill="#CCCCCC"/>
<path d="M62.0694 6.83944C61.6869 6.83944 61.3633 6.6892 61.0985 6.38873C60.8484 6.07324 60.7233 5.69014 60.7233 5.23944C60.7233 5.05915 60.7748 4.84883 60.8778 4.60845C60.9808 4.35305 61.1426 4.13521 61.3633 3.95493C61.584 3.75962 61.8708 3.66197 62.2239 3.66197C62.5917 3.66197 62.908 3.79718 63.1728 4.06761C63.4376 4.323 63.57 4.68357 63.57 5.14929C63.57 5.56995 63.4818 5.90798 63.3052 6.16338C63.1287 6.40376 62.9227 6.57653 62.6873 6.68169C62.4667 6.78685 62.2607 6.83944 62.0694 6.83944ZM60.7454 18.3099C60.5394 18.3099 60.3114 18.3023 60.0613 18.2873C59.8259 18.2573 59.6273 18.1822 59.4655 18.062C59.3037 17.9418 59.2228 17.754 59.2228 17.4986C59.2228 17.2131 59.3331 17.0103 59.5538 16.8901C59.7744 16.7549 60.076 16.6723 60.4585 16.6423C60.6939 16.6122 60.8925 16.5671 61.0543 16.507C61.2309 16.4469 61.3265 16.3343 61.3412 16.169C61.4148 15.4629 61.4442 14.892 61.4295 14.4563C61.4295 14.0207 61.4295 13.7052 61.4295 13.5099C61.4295 12.9991 61.4221 12.5559 61.4074 12.1803C61.3927 11.7897 61.3706 11.3465 61.3412 10.8507C61.3265 10.6404 61.2897 10.4676 61.2309 10.3324C61.1868 10.1822 61.0838 10.107 60.9219 10.107C60.4806 10.107 60.1349 10.1146 59.8848 10.1296C59.6347 10.1446 59.4802 10.1521 59.4214 10.1521C59.1713 10.1521 58.9947 10.0845 58.8917 9.9493C58.7888 9.79906 58.7373 9.61878 58.7373 9.40845C58.7373 9.10798 58.8697 8.90516 59.1345 8.8C59.3552 8.69484 59.8112 8.61972 60.5027 8.57465C60.9293 8.5446 61.3486 8.52207 61.7605 8.50704C62.1724 8.49202 62.5034 8.48451 62.7535 8.48451C62.9742 8.48451 63.1287 8.55962 63.2169 8.70986C63.3052 8.84507 63.3493 9.03286 63.3493 9.27324V16.5972H64.5189C64.8426 16.5972 65.1 16.6573 65.2913 16.7775C65.4825 16.8977 65.5782 17.1305 65.5782 17.4761C65.5782 17.7164 65.512 17.9192 65.3795 18.0845C65.2619 18.2347 65.1074 18.3099 64.9161 18.3099H60.7454Z" fill="#CCCCCC"/>
<path d="M70.9331 18.4451C69.8592 18.4451 68.9176 18.2047 68.1085 17.7239C67.3141 17.2432 66.6888 16.6047 66.2328 15.8085C65.7914 14.9972 65.5707 14.0958 65.5707 13.1042C65.5707 12.1277 65.7841 11.2113 66.2107 10.3549C66.652 9.48357 67.2626 8.78498 68.0423 8.25916C68.8367 7.71831 69.7635 7.44789 70.8228 7.44789C71.2641 7.44789 71.7275 7.523 72.213 7.67324C72.6985 7.82347 73.1031 8.15399 73.4267 8.66479C73.412 8.49953 73.3973 8.34178 73.3826 8.19155C73.3826 8.04131 73.3826 7.92113 73.3826 7.83099C73.3826 7.57559 73.4488 7.34272 73.5812 7.13239C73.7136 6.90704 73.9563 6.79437 74.3094 6.79437C74.6625 6.79437 74.8905 6.91455 74.9935 7.15493C75.0965 7.38028 75.148 7.62066 75.148 7.87606C75.148 8.74742 75.148 9.43099 75.148 9.92676C75.1627 10.4075 75.17 10.6854 75.17 10.7606C75.17 11.1962 75.1038 11.5042 74.9714 11.6845C74.8537 11.8648 74.6257 11.9549 74.2873 11.9549C73.9637 11.9549 73.7283 11.8723 73.5812 11.707C73.4341 11.5418 73.3458 11.3915 73.3164 11.2563C73.2428 10.9559 73.1398 10.6479 73.0074 10.3324C72.8897 10.0169 72.6764 9.75399 72.3675 9.54366C72.0733 9.31831 71.6172 9.20563 70.9993 9.20563C70.249 9.20563 69.6311 9.38591 69.1457 9.74648C68.6602 10.092 68.2997 10.5653 68.0644 11.1662C67.8437 11.7521 67.7333 12.4131 67.7333 13.1493C67.7333 14.216 67.9834 15.0723 68.4836 15.7183C68.9838 16.3493 69.8003 16.6648 70.9331 16.6648C71.6834 16.6648 72.2719 16.5446 72.6985 16.3042C73.1398 16.0639 73.5076 15.7709 73.8019 15.4254C73.9637 15.23 74.1255 15.0573 74.2873 14.907C74.4639 14.7568 74.6772 14.6817 74.9273 14.6817C75.1774 14.6817 75.3686 14.7568 75.5011 14.907C75.6335 15.0423 75.6997 15.2 75.6997 15.3803C75.6997 15.4554 75.6849 15.5606 75.6555 15.6958C75.6408 15.816 75.5967 15.9361 75.5231 16.0563C75.3319 16.4319 75.0376 16.8075 74.6404 17.1831C74.2432 17.5437 73.7357 17.8441 73.1178 18.0845C72.5146 18.3249 71.7864 18.4451 70.9331 18.4451Z" fill="#CCCCCC"/>
<path d="M78.0588 18.9408C77.5145 18.9408 77.1246 18.7831 76.8892 18.4676C76.6686 18.1671 76.5582 17.8592 76.5582 17.5437C76.5582 17.3634 76.6024 17.1606 76.6906 16.9352C76.7936 16.7099 76.9554 16.5146 77.1761 16.3493C77.3968 16.184 77.7057 16.1014 78.1029 16.1014C78.6178 16.1014 78.993 16.2516 79.2284 16.5521C79.4785 16.8526 79.6035 17.1681 79.6035 17.4986C79.6035 17.8742 79.4711 18.2047 79.2063 18.4901C78.9562 18.7906 78.5737 18.9408 78.0588 18.9408Z" fill="#CCCCCC"/>
<path d="M83.9458 18.5577C82.916 18.5577 82.0921 18.3249 81.4742 17.8592C80.8711 17.3784 80.5695 16.7324 80.5695 15.9211C80.5695 15.0648 80.9152 14.3587 81.6066 13.8028C82.3128 13.2319 83.2911 12.9465 84.5416 12.9465C85.0712 12.9465 85.5641 13.0066 86.0201 13.1268C86.4762 13.2469 86.9322 13.4498 87.3883 13.7352V12.4282C87.3883 11.4817 87.2265 10.738 86.9028 10.1972C86.5792 9.64131 85.9686 9.36338 85.0712 9.36338C84.7034 9.36338 84.343 9.41596 83.9899 9.52113C83.6516 9.61127 83.372 9.73897 83.1514 9.90423C82.9307 10.0695 82.8204 10.2498 82.8204 10.4451C82.8204 10.5653 82.8498 10.6479 82.9086 10.693C82.9822 10.723 83.0337 10.7455 83.0631 10.7606C83.3573 10.8958 83.5044 11.1362 83.5044 11.4817C83.5044 11.8122 83.3867 12.0376 83.1514 12.1577C82.916 12.2779 82.6732 12.338 82.4231 12.338C81.9229 12.338 81.5772 12.1653 81.386 11.8197C81.2094 11.4742 81.1212 11.1211 81.1212 10.7606C81.1212 9.91925 81.5037 9.22066 82.2687 8.66479C83.0337 8.10892 84.0267 7.83099 85.2478 7.83099C86.6748 7.83099 87.7193 8.21408 88.3813 8.98028C89.0434 9.74648 89.3744 10.8357 89.3744 12.2479C89.3744 12.5333 89.367 12.8789 89.3523 13.2845C89.3376 13.6751 89.3229 14.0732 89.3082 14.4789C89.2934 14.8695 89.2861 15.215 89.2861 15.5155C89.2861 15.8009 89.2861 16.0338 89.2861 16.2141C89.2861 16.3793 89.2934 16.4995 89.3082 16.5746C89.3229 16.7249 89.3817 16.8 89.4847 16.8C89.6171 16.8 89.6833 16.7099 89.6833 16.5296C89.698 16.3643 89.7348 16.2141 89.7936 16.0789C89.8525 15.9437 90.029 15.8761 90.3232 15.8761C90.5439 15.8761 90.7131 15.9361 90.8308 16.0563C90.9632 16.1765 91.0294 16.4094 91.0294 16.7549C91.0294 17.3709 90.8529 17.8291 90.4998 18.1296C90.1467 18.415 89.7054 18.5577 89.1758 18.5577C88.7933 18.5577 88.4402 18.4676 88.1165 18.2873C87.8076 18.107 87.5795 17.754 87.4324 17.2282C86.4762 18.1146 85.314 18.5577 83.9458 18.5577ZM84.5857 17.0254C85.4979 17.0254 86.1746 16.8676 86.6159 16.5521C87.072 16.2216 87.3 15.8911 87.3 15.5606C87.3 15.2451 87.072 14.9671 86.6159 14.7268C86.1746 14.4714 85.5861 14.3437 84.8505 14.3437C84.0267 14.3437 83.4456 14.5014 83.1072 14.8169C82.7689 15.1174 82.5997 15.4554 82.5997 15.831C82.5997 16.2216 82.7542 16.5221 83.0631 16.7324C83.3867 16.9277 83.8943 17.0254 84.5857 17.0254Z" fill="#CCCCCC"/>
<path d="M93.4913 6.83944C93.1088 6.83944 92.7851 6.6892 92.5203 6.38873C92.2702 6.07324 92.1452 5.69014 92.1452 5.23944C92.1452 5.05915 92.1967 4.84883 92.2997 4.60845C92.4026 4.35305 92.5645 4.13521 92.7851 3.95493C93.0058 3.75962 93.2927 3.66197 93.6458 3.66197C94.0135 3.66197 94.3298 3.79718 94.5947 4.06761C94.8595 4.323 94.9919 4.68357 94.9919 5.14929C94.9919 5.56995 94.9036 5.90798 94.7271 6.16338C94.5505 6.40376 94.3446 6.57653 94.1092 6.68169C93.8885 6.78685 93.6825 6.83944 93.4913 6.83944ZM92.1673 18.3099C91.9613 18.3099 91.7333 18.3023 91.4832 18.2873C91.2478 18.2573 91.0492 18.1822 90.8873 18.062C90.7255 17.9418 90.6446 17.754 90.6446 17.4986C90.6446 17.2131 90.7549 17.0103 90.9756 16.8901C91.1963 16.7549 91.4979 16.6723 91.8804 16.6423C92.1158 16.6122 92.3144 16.5671 92.4762 16.507C92.6527 16.4469 92.7484 16.3343 92.7631 16.169C92.8366 15.4629 92.866 14.892 92.8513 14.4563C92.8513 14.0207 92.8513 13.7052 92.8513 13.5099C92.8513 12.9991 92.844 12.5559 92.8293 12.1803C92.8146 11.7897 92.7925 11.3465 92.7631 10.8507C92.7484 10.6404 92.7116 10.4676 92.6527 10.3324C92.6086 10.1822 92.5056 10.107 92.3438 10.107C91.9024 10.107 91.5567 10.1146 91.3066 10.1296C91.0565 10.1446 90.9021 10.1521 90.8432 10.1521C90.5931 10.1521 90.4166 10.0845 90.3136 9.9493C90.2106 9.79906 90.1591 9.61878 90.1591 9.40845C90.1591 9.10798 90.2915 8.90516 90.5563 8.8C90.777 8.69484 91.2331 8.61972 91.9245 8.57465C92.3511 8.5446 92.7704 8.52207 93.1824 8.50704C93.5943 8.49202 93.9253 8.48451 94.1754 8.48451C94.396 8.48451 94.5505 8.55962 94.6388 8.70986C94.7271 8.84507 94.7712 9.03286 94.7712 9.27324V16.5972H95.9408C96.2644 16.5972 96.5219 16.6573 96.7131 16.7775C96.9044 16.8977 97 17.1305 97 17.4761C97 17.7164 96.9338 17.9192 96.8014 18.0845C96.6837 18.2347 96.5292 18.3099 96.338 18.3099H92.1673Z" fill="#CCCCCC"/>
<path d="M64.8229 3.69718C64.8229 5.73908 63.2019 7.39437 61.2024 7.39437C59.2029 7.39437 57.582 5.73908 57.582 3.69718C57.582 1.65529 59.2029 0 61.2024 0C63.2019 0 64.8229 1.65529 64.8229 3.69718Z" fill="#CCCCCC"/>
<path d="M96.1999 3.69718C96.1999 5.73908 94.579 7.39437 92.5795 7.39437C90.58 7.39437 88.959 5.73908 88.959 3.69718C88.959 1.65529 90.58 0 92.5795 0C94.579 0 96.1999 1.65529 96.1999 3.69718Z" fill="#CCCCCC"/>
<path d="M11.5567 25C8.06978 25 5.26362 23.9499 3.13825 21.8496C1.04608 19.7154 0 16.6836 0 12.7541C0 10.1118 0.48153 7.84214 1.44459 5.94512C2.40765 4.0481 3.75261 2.59146 5.47948 1.5752C7.23955 0.525068 9.28191 0 11.6065 0C13.6323 0 15.3093 0.338753 16.6377 1.01626C17.9993 1.65989 19.0786 2.48984 19.8756 3.5061C20.6726 4.48848 21.2371 5.50474 21.5692 6.55488C21.9013 7.57114 22.0674 8.4519 22.0674 9.19715C22.0674 9.87466 21.9677 10.4505 21.7685 10.9248C21.5692 11.3991 21.2205 11.7717 20.7224 12.0427C20.3239 12.2798 19.7095 12.4323 18.8793 12.5C18.0823 12.5678 16.7539 12.6016 14.8942 12.6016H9.66381C9.23209 12.6355 8.83358 12.6524 8.46829 12.6524C8.10299 12.6524 7.73769 12.6524 7.37239 12.6524H4.68246C4.64926 12.6863 4.63265 12.771 4.63265 12.9065V13.2114C4.63265 14.397 4.8153 15.6165 5.1806 16.8699C5.57911 18.0894 6.2931 19.1057 7.32258 19.9187C8.35205 20.7317 9.86306 21.1382 11.8556 21.1382C13.0511 21.1382 14.0142 20.918 14.7448 20.4776C15.5086 20.0373 16.1063 19.4953 16.5381 18.8516C17.003 18.1741 17.3517 17.5136 17.5841 16.8699C17.7834 16.3279 18.0657 15.8875 18.431 15.5488C18.7963 15.1762 19.2612 14.9898 19.8258 14.9898C20.4567 14.9898 20.9549 15.1253 21.3202 15.3963C21.6855 15.6335 21.8681 16.1755 21.8681 17.0224C21.8681 17.5644 21.7187 18.2757 21.4198 19.1565C21.1209 20.0373 20.5896 20.935 19.8258 21.8496C19.0619 22.7304 17.9993 23.4756 16.6377 24.0854C15.3093 24.6951 13.6157 25 11.5567 25ZM11.5069 3.81098C9.48116 3.81098 7.88713 4.42073 6.72482 5.64024C5.59571 6.82588 4.93153 8.16396 4.73228 9.65447L16.3886 9.45122C16.9864 9.45122 17.2853 9.04472 17.2853 8.23171C17.2853 7.62195 17.086 6.97832 16.6875 6.30081C16.289 5.58943 15.658 4.99661 14.7946 4.52236C13.9644 4.0481 12.8685 3.81098 11.5069 3.81098Z" fill="#CCCCCC"/>
</svg>
