<svg width="22" height="25" viewBox="0 0 22 25" fill="none" xmlns="http://www.w3.org/2000/svg">
<path d="M11.5214 25C8.04515 25 5.24755 23.9499 3.12867 21.8496C1.04289 19.7154 0 16.6836 0 12.7541C0 10.1118 0.48006 7.84214 1.44018 5.94512C2.4003 4.0481 3.74116 2.59146 5.46275 1.5752C7.21746 0.525068 9.25357 0 11.5711 0C13.5907 0 15.2626 0.338753 16.5869 1.01626C17.9443 1.65989 19.0203 2.48984 19.8149 3.5061C20.6095 4.48848 21.1723 5.50474 21.5034 6.55488C21.8345 7.57114 22 8.4519 22 9.19715C22 9.87466 21.9007 10.4505 21.702 10.9248C21.5034 11.3991 21.1558 11.7717 20.6591 12.0427C20.2619 12.2798 19.6494 12.4323 18.8217 12.5C18.0271 12.5678 16.7028 12.6016 14.8488 12.6016H9.63431C9.20391 12.6355 8.80662 12.6524 8.44244 12.6524C8.07825 12.6524 7.71407 12.6524 7.34989 12.6524H4.66817C4.63506 12.6863 4.61851 12.771 4.61851 12.9065V13.2114C4.61851 14.397 4.8006 15.6165 5.16479 16.8699C5.56208 18.0894 6.27389 19.1057 7.30023 19.9187C8.32656 20.7317 9.83296 21.1382 11.8194 21.1382C13.0113 21.1382 13.9714 20.918 14.6998 20.4776C15.4612 20.0373 16.0572 19.4953 16.4876 18.8516C16.9511 18.1741 17.2987 17.5136 17.5305 16.8699C17.7291 16.3279 18.0105 15.8875 18.3747 15.5488C18.7389 15.1762 19.2024 14.9898 19.7652 14.9898C20.3943 14.9898 20.8909 15.1253 21.2551 15.3963C21.6193 15.6335 21.8014 16.1755 21.8014 17.0224C21.8014 17.5644 21.6524 18.2757 21.3544 19.1565C21.0564 20.0373 20.5267 20.935 19.7652 21.8496C19.0038 22.7304 17.9443 23.4756 16.5869 24.0854C15.2626 24.6951 13.5741 25 11.5214 25ZM11.4718 3.81098C9.45222 3.81098 7.86306 4.42073 6.70429 5.64024C5.57863 6.82588 4.91648 8.16396 4.71783 9.65447L16.3386 9.45122C16.9345 9.45122 17.2325 9.04472 17.2325 8.23171C17.2325 7.62195 17.0339 6.97832 16.6366 6.30081C16.2393 5.58943 15.6102 4.99661 14.7494 4.52236C13.9217 4.0481 12.8292 3.81098 11.4718 3.81098Z" fill="#CCCCCC"/>
</svg>
