<svg width="23" height="22" viewBox="0 0 23 22" fill="none" xmlns="http://www.w3.org/2000/svg">
<g clip-path="url(#clip0_2931_1335)">
<path d="M7.83392 11C7.83392 8.97503 9.47503 7.33304 11.5 7.33304C13.525 7.33304 15.167 8.97503 15.167 11C15.167 13.025 13.525 14.667 11.5 14.667C9.47503 14.667 7.83392 13.025 7.83392 11ZM5.85163 11C5.85163 14.1196 8.3804 16.6484 11.5 16.6484C14.6196 16.6484 17.1484 14.1196 17.1484 11C17.1484 7.8804 14.6196 5.35163 11.5 5.35163C8.3804 5.35163 5.85163 7.8804 5.85163 11ZM16.052 5.12767C16.0519 5.38874 16.1292 5.64398 16.2741 5.86111C16.4191 6.07824 16.6252 6.24751 16.8663 6.34752C17.1075 6.44752 17.3729 6.47377 17.629 6.42294C17.8851 6.37211 18.1203 6.24649 18.305 6.06195C18.4897 5.87742 18.6155 5.64227 18.6665 5.38624C18.7175 5.1302 18.6915 4.86478 18.5917 4.62355C18.4919 4.38231 18.3228 4.17608 18.1058 4.03095C17.8888 3.88582 17.6336 3.8083 17.3725 3.8082H17.372C17.022 3.80836 16.6865 3.94741 16.439 4.19481C16.1915 4.44221 16.0523 4.77773 16.052 5.12767ZM7.056 19.9537C5.98354 19.9049 5.40063 19.7263 5.01326 19.5753C4.49969 19.3754 4.13326 19.1373 3.74799 18.7525C3.36273 18.3678 3.12425 18.0017 2.92519 17.4882C2.77418 17.101 2.59554 16.5179 2.54679 15.4454C2.49346 14.2859 2.48282 13.9376 2.48282 11.0001C2.48282 8.06256 2.49434 7.71522 2.54679 6.55477C2.59563 5.48231 2.77559 4.90037 2.92519 4.51202C3.12513 3.99846 3.36326 3.63202 3.74799 3.24676C4.13273 2.8615 4.49881 2.62302 5.01326 2.42396C5.40046 2.27295 5.98354 2.09431 7.056 2.04556C8.21549 1.99223 8.56379 1.98158 11.5 1.98158C14.4362 1.98158 14.7849 1.99311 15.9453 2.04556C17.0178 2.0944 17.5997 2.27436 17.9881 2.42396C18.5016 2.62302 18.8681 2.86202 19.2533 3.24676C19.6386 3.6315 19.8762 3.99846 20.0761 4.51202C20.2271 4.89922 20.4058 5.48231 20.4545 6.55477C20.5079 7.71522 20.5185 8.06256 20.5185 11.0001C20.5185 13.9376 20.5079 14.285 20.4545 15.4454C20.4057 16.5179 20.2262 17.1008 20.0761 17.4882C19.8762 18.0017 19.6381 18.3682 19.2533 18.7525C18.8686 19.1369 18.5016 19.3754 17.9881 19.5753C17.6009 19.7263 17.0178 19.905 15.9453 19.9537C14.7858 20.0071 14.4375 20.0177 11.5 20.0177C8.56247 20.0177 8.21514 20.0071 7.056 19.9537ZM6.96492 0.066616C5.7939 0.119944 4.99372 0.305624 4.29491 0.577544C3.5712 0.858352 2.95854 1.23508 2.34633 1.84633C1.73411 2.45758 1.35835 3.0712 1.07754 3.79491C0.805624 4.49416 0.619944 5.2939 0.566616 6.46492C0.512408 7.63778 0.5 8.01275 0.5 11C0.5 13.9872 0.512408 14.3622 0.566616 15.5351C0.619944 16.7062 0.805624 17.5058 1.07754 18.2051C1.35835 18.9284 1.7342 19.5427 2.34633 20.1537C2.95846 20.7647 3.5712 21.1409 4.29491 21.4225C4.99504 21.6944 5.7939 21.8801 6.96492 21.9334C8.1384 21.9867 8.51275 22 11.5 22C14.4872 22 14.8622 21.9876 16.0351 21.9334C17.2062 21.8801 18.0058 21.6944 18.7051 21.4225C19.4284 21.1409 20.0415 20.7649 20.6537 20.1537C21.2659 19.5424 21.6409 18.9284 21.9225 18.2051C22.1944 17.5058 22.3809 16.7061 22.4334 15.5351C22.4867 14.3613 22.4991 13.9872 22.4991 11C22.4991 8.01275 22.4867 7.63778 22.4334 6.46492C22.3801 5.29382 22.1944 4.49372 21.9225 3.79491C21.6409 3.07164 21.2649 2.45854 20.6537 1.84633C20.0424 1.23411 19.4284 0.858352 18.706 0.577544C18.0058 0.305624 17.2061 0.119064 16.036 0.066616C14.8631 0.013288 14.4881 0 11.5009 0C8.51363 0 8.1384 0.012408 6.96492 0.066616Z" fill="url(#paint0_radial_2931_1335)"/>
<path d="M7.83392 11C7.83392 8.97503 9.47503 7.33304 11.5 7.33304C13.525 7.33304 15.167 8.97503 15.167 11C15.167 13.025 13.525 14.667 11.5 14.667C9.47503 14.667 7.83392 13.025 7.83392 11ZM5.85163 11C5.85163 14.1196 8.3804 16.6484 11.5 16.6484C14.6196 16.6484 17.1484 14.1196 17.1484 11C17.1484 7.8804 14.6196 5.35163 11.5 5.35163C8.3804 5.35163 5.85163 7.8804 5.85163 11ZM16.052 5.12767C16.0519 5.38874 16.1292 5.64398 16.2741 5.86111C16.4191 6.07824 16.6252 6.24751 16.8663 6.34752C17.1075 6.44752 17.3729 6.47377 17.629 6.42294C17.8851 6.37211 18.1203 6.24649 18.305 6.06195C18.4897 5.87742 18.6155 5.64227 18.6665 5.38624C18.7175 5.1302 18.6915 4.86478 18.5917 4.62355C18.4919 4.38231 18.3228 4.17608 18.1058 4.03095C17.8888 3.88582 17.6336 3.8083 17.3725 3.8082H17.372C17.022 3.80836 16.6865 3.94741 16.439 4.19481C16.1915 4.44221 16.0523 4.77773 16.052 5.12767ZM7.056 19.9537C5.98354 19.9049 5.40063 19.7263 5.01326 19.5753C4.49969 19.3754 4.13326 19.1373 3.74799 18.7525C3.36273 18.3678 3.12425 18.0017 2.92519 17.4882C2.77418 17.101 2.59554 16.5179 2.54679 15.4454C2.49346 14.2859 2.48282 13.9376 2.48282 11.0001C2.48282 8.06256 2.49434 7.71522 2.54679 6.55477C2.59563 5.48231 2.77559 4.90037 2.92519 4.51202C3.12513 3.99846 3.36326 3.63202 3.74799 3.24676C4.13273 2.8615 4.49881 2.62302 5.01326 2.42396C5.40046 2.27295 5.98354 2.09431 7.056 2.04556C8.21549 1.99223 8.56379 1.98158 11.5 1.98158C14.4362 1.98158 14.7849 1.99311 15.9453 2.04556C17.0178 2.0944 17.5997 2.27436 17.9881 2.42396C18.5016 2.62302 18.8681 2.86202 19.2533 3.24676C19.6386 3.6315 19.8762 3.99846 20.0761 4.51202C20.2271 4.89922 20.4058 5.48231 20.4545 6.55477C20.5079 7.71522 20.5185 8.06256 20.5185 11.0001C20.5185 13.9376 20.5079 14.285 20.4545 15.4454C20.4057 16.5179 20.2262 17.1008 20.0761 17.4882C19.8762 18.0017 19.6381 18.3682 19.2533 18.7525C18.8686 19.1369 18.5016 19.3754 17.9881 19.5753C17.6009 19.7263 17.0178 19.905 15.9453 19.9537C14.7858 20.0071 14.4375 20.0177 11.5 20.0177C8.56247 20.0177 8.21514 20.0071 7.056 19.9537ZM6.96492 0.066616C5.7939 0.119944 4.99372 0.305624 4.29491 0.577544C3.5712 0.858352 2.95854 1.23508 2.34633 1.84633C1.73411 2.45758 1.35835 3.0712 1.07754 3.79491C0.805624 4.49416 0.619944 5.2939 0.566616 6.46492C0.512408 7.63778 0.5 8.01275 0.5 11C0.5 13.9872 0.512408 14.3622 0.566616 15.5351C0.619944 16.7062 0.805624 17.5058 1.07754 18.2051C1.35835 18.9284 1.7342 19.5427 2.34633 20.1537C2.95846 20.7647 3.5712 21.1409 4.29491 21.4225C4.99504 21.6944 5.7939 21.8801 6.96492 21.9334C8.1384 21.9867 8.51275 22 11.5 22C14.4872 22 14.8622 21.9876 16.0351 21.9334C17.2062 21.8801 18.0058 21.6944 18.7051 21.4225C19.4284 21.1409 20.0415 20.7649 20.6537 20.1537C21.2659 19.5424 21.6409 18.9284 21.9225 18.2051C22.1944 17.5058 22.3809 16.7061 22.4334 15.5351C22.4867 14.3613 22.4991 13.9872 22.4991 11C22.4991 8.01275 22.4867 7.63778 22.4334 6.46492C22.3801 5.29382 22.1944 4.49372 21.9225 3.79491C21.6409 3.07164 21.2649 2.45854 20.6537 1.84633C20.0424 1.23411 19.4284 0.858352 18.706 0.577544C18.0058 0.305624 17.2061 0.119064 16.036 0.066616C14.8631 0.013288 14.4881 0 11.5009 0C8.51363 0 8.1384 0.012408 6.96492 0.066616Z" fill="url(#paint1_radial_2931_1335)"/>
</g>
<defs>
<radialGradient id="paint0_radial_2931_1335" cx="0" cy="0" r="1" gradientUnits="userSpaceOnUse" gradientTransform="translate(3.42283 22.1039) scale(28.7192 28.7192)">
<stop offset="0.09" stop-color="#FA8F21"/>
<stop offset="0.78" stop-color="#D82D7E"/>
</radialGradient>
<radialGradient id="paint1_radial_2931_1335" cx="0" cy="0" r="1" gradientUnits="userSpaceOnUse" gradientTransform="translate(13.842 23.0895) scale(22.6347)">
<stop offset="0.64" stop-color="#8C3AAA" stop-opacity="0"/>
<stop offset="1" stop-color="#8C3AAA"/>
</radialGradient>
<clipPath id="clip0_2931_1335">
<rect width="22" height="22" fill="white" transform="translate(0.5)"/>
</clipPath>
</defs>
</svg>
