<svg width="213" height="38" viewBox="0 0 213 38" fill="none" xmlns="http://www.w3.org/2000/svg">
<path d="M213 32.2122C213 35.3646 210.48 37.9202 207.372 37.9202C204.264 37.9202 201.744 35.3646 201.744 32.2122C201.744 29.0598 204.264 26.5042 207.372 26.5042C210.48 26.5042 213 29.0598 213 32.2122Z" fill="url(#paint0_linear_1314_162)"/>
<path d="M99.888 19.0399C99.888 22.1923 97.3683 24.7479 94.26 24.7479C91.1517 24.7479 88.6319 22.1923 88.6319 19.0399C88.6319 15.8875 91.1517 13.3319 94.26 13.3319C97.3683 13.3319 99.888 15.8875 99.888 19.0399Z" fill="url(#paint1_linear_1314_162)"/>
<path d="M156.922 1.22614C157.272 0.674255 157.761 0.287895 158.387 0.0674838C158.496 0.0290697 158.889 0.0080702 159.259 0.0207895C159.85 0.0411917 159.995 0.0795208 160.435 0.332456C160.997 0.655903 161.305 1.01059 161.621 1.69991L161.836 2.16942V35.8031L161.621 36.2726C161.306 36.9598 160.998 37.3154 160.435 37.6445C159.959 37.9224 159.893 37.9372 159.14 37.9372C158.457 37.9372 158.299 37.9092 157.993 37.7339C157.439 37.4158 157.217 37.2109 156.922 36.7464C156.363 35.8653 156.405 36.5185 156.405 19.1997C156.405 2.73453 156.363 2.10727 156.922 1.22614Z" fill="url(#paint2_linear_1314_162)"/>
<path d="M39.8269 14.2882C41.7974 6.46441 48.5267 0.763854 56.5538 0.118094C57.0084 0.0815308 57.8585 0.0689168 58.443 0.0901521C62.2538 0.228421 65.6232 1.45017 68.7117 3.81367C69.6258 4.51324 71.299 6.24432 72.0458 7.26297C72.8238 8.32418 73.0295 8.80852 73.0295 9.5781C73.0295 10.6708 72.4918 11.5481 71.5266 12.03C71.0629 12.2616 70.9269 12.2921 70.3698 12.2901C69.303 12.2863 68.6446 11.8798 67.8555 10.7377C66.7796 9.18045 65.1097 7.74212 63.3626 6.86764C61.6673 6.01919 60.2595 5.65548 58.3643 5.57628C52.0304 5.31156 46.3413 9.77281 44.9506 16.0947C43.8952 20.893 45.5301 25.9718 49.1566 29.1609C54.9259 34.234 63.4215 33.4379 67.7936 27.4144C68.6726 26.2034 69.1548 25.862 70.1148 25.7711C71.2083 25.6675 72.266 26.2611 72.7687 27.2605C72.851 27.4241 72.96 27.7876 73.0109 28.0681C73.1927 29.0709 72.8134 29.8972 71.3622 31.6599C68.766 34.8135 65.1292 36.9301 60.9225 37.7357C60.0906 37.895 59.7289 37.9166 57.892 37.9167C55.5902 37.9168 54.6972 37.8072 52.9564 37.3115C46.617 35.5062 41.622 30.4481 39.9039 24.0942C39.3928 22.2038 39.2808 21.3065 39.2783 19.0781C39.2759 16.8594 39.3564 16.1562 39.8269 14.2882Z" fill="url(#paint3_linear_1314_162)"/>
<path d="M165.376 14.2882C167.346 6.46441 174.075 0.763854 182.103 0.118094C182.557 0.0815308 183.407 0.0689168 183.992 0.0901521C187.803 0.228421 191.172 1.45017 194.26 3.81367C195.175 4.51324 196.848 6.24432 197.595 7.26297C198.373 8.32418 198.578 8.80852 198.578 9.5781C198.578 10.6708 198.041 11.5481 197.075 12.03C196.612 12.2616 196.476 12.2921 195.919 12.2901C194.852 12.2863 194.193 11.8798 193.404 10.7377C192.328 9.18045 190.659 7.74212 188.911 6.86764C187.216 6.01919 185.808 5.65548 183.913 5.57628C177.579 5.31156 171.89 9.77281 170.499 16.0947C169.444 20.893 171.079 25.9718 174.705 29.1609C180.475 34.234 188.97 33.4379 193.342 27.4144C194.221 26.2034 194.704 25.862 195.664 25.7711C196.757 25.6675 197.815 26.2611 198.317 27.2605C198.4 27.4241 198.509 27.7876 198.56 28.0681C198.741 29.0709 198.362 29.8972 196.911 31.6599C194.315 34.8135 190.678 36.9301 186.471 37.7357C185.639 37.895 185.278 37.9166 183.441 37.9167C181.139 37.9168 180.246 37.8072 178.505 37.3115C172.166 35.5062 167.171 30.4481 165.453 24.0942C164.942 22.2038 164.83 21.3065 164.827 19.0781C164.825 16.8594 164.905 16.1562 165.376 14.2882Z" fill="url(#paint4_linear_1314_162)"/>
<path d="M7.42646 3.9189C10.3423 1.69494 13.6715 0.415871 17.3051 0.123527C18.8782 -0.00300694 20.9331 0.150589 22.5474 0.515421C26.9694 1.51476 30.9422 4.32141 33.4623 8.22639C34.4993 9.83317 35.4874 12.2153 35.8797 14.0541C36.3149 16.0934 36.4174 18.4923 36.1056 19.3375C35.9019 19.8895 35.321 20.513 34.7402 20.803L34.3466 20.9995H13.7236L13.279 20.7881C12.7129 20.5189 12.2296 20.0287 11.9642 19.4546C11.7898 19.0775 11.7557 18.8924 11.7557 18.3235C11.7557 17.7155 11.7833 17.5864 12.0148 17.1094C12.2966 16.5287 12.6993 16.1233 13.2847 15.8308L13.6449 15.6508L22.1656 15.6298C26.852 15.6182 30.6864 15.5795 30.6864 15.5438C30.6864 15.3426 30.1842 13.7152 29.9435 13.1361C28.8264 10.4494 26.6854 8.14927 24.1138 6.87316C22.4127 6.02901 21.064 5.67224 19.2263 5.5802C16.4546 5.44129 13.6505 6.24328 11.2764 7.85381C8.81167 9.52589 6.92709 12.0653 6.02314 14.9323C5.53567 16.4784 5.45947 17.0334 5.459 19.0436C5.45869 20.6234 5.48073 20.9445 5.64185 21.7082C6.51951 25.8668 9.14699 29.3021 12.8577 31.1422C16.7512 33.0731 21.4113 32.9684 25.5429 30.8571C27.055 30.0845 27.9203 29.436 29.3089 28.0342C30.7429 26.5868 31.0059 26.4315 32.0246 26.4315C32.5815 26.4315 32.7682 26.4666 33.1382 26.6412C33.6797 26.8965 34.1502 27.3591 34.4412 27.9222C34.6345 28.2963 34.6593 28.4299 34.6603 29.1024C34.662 30.1696 34.4909 30.4974 33.257 31.7921C29.9474 35.2647 25.6561 37.3636 20.7934 37.8883C19.6339 38.0134 16.7352 37.9457 15.7308 37.77C12.611 37.2242 9.88068 36.0282 7.35561 34.1011C3.24399 30.9631 0.59668 26.1211 0.0614247 20.76C-0.0635731 19.5081 0.0090857 17.3074 0.216969 16.0499C1.02631 11.1547 3.58553 6.84841 7.42646 3.9189Z" fill="url(#paint5_linear_1314_162)"/>
<path fill-rule="evenodd" clip-rule="evenodd" d="M94.2993 37.9202C104.385 37.9202 112.561 29.4493 112.561 19C112.561 8.55068 104.385 0.0798319 94.2993 0.0798319C84.2137 0.0798319 76.0377 8.55068 76.0377 19C76.0377 29.4493 84.2137 37.9202 94.2993 37.9202ZM94.2993 32.4118C101.429 32.4118 107.208 26.4071 107.208 19C107.208 11.5929 101.429 5.58824 94.2993 5.58824C87.1698 5.58824 81.3902 11.5929 81.3902 19C81.3902 26.4071 87.1698 32.4118 94.2993 32.4118Z" fill="url(#paint6_linear_1314_162)"/>
<path d="M152.608 17.985C152.597 16.9926 152.58 16.397 152.558 16.1739C152.149 12.0098 150.37 8.21583 147.432 5.24433C144.19 1.96443 140.072 0.163595 135.474 0.0150004C135.126 0.00373089 134.742 -0.0012831 134.443 0.000278763C134.145 -0.0012831 133.761 0.00373089 133.413 0.0150004C128.815 0.163595 124.697 1.96443 121.454 5.24433C118.517 8.21583 116.738 12.0098 116.329 16.1739C116.307 16.397 116.29 16.9926 116.279 17.985C116.266 18.3099 116.261 18.6551 116.261 19.036C116.261 19.2071 116.263 19.3776 116.267 19.5475C116.259 21.2304 116.258 23.5464 116.266 26.5419L116.29 36.0293L116.524 36.4972C117.151 37.754 118.613 38.3199 119.936 37.8176C120.559 37.5811 121.213 36.918 121.446 36.2859L121.613 35.8318V18.7605H121.66C121.707 16.2647 122.437 13.8054 123.817 11.6504C126.189 7.94402 130.173 5.66289 134.443 5.50489C138.714 5.66289 142.698 7.94402 145.07 11.6504C146.45 13.8054 147.18 16.2647 147.227 18.7605H147.274V35.8318L147.441 36.2859C147.674 36.918 148.328 37.5811 148.951 37.8176C150.274 38.3199 151.736 37.754 152.363 36.4972L152.597 36.0293L152.621 26.5419C152.628 23.5464 152.628 21.2304 152.62 19.5475C152.624 19.3776 152.626 19.2071 152.626 19.036C152.626 18.6552 152.621 18.3099 152.608 17.985Z" fill="url(#paint7_linear_1314_162)"/>
<defs>
<linearGradient id="paint0_linear_1314_162" x1="0" y1="19" x2="213" y2="19" gradientUnits="userSpaceOnUse">
<stop stop-color="#FC08EA"/>
<stop offset="1" stop-color="#6A08FC"/>
</linearGradient>
<linearGradient id="paint1_linear_1314_162" x1="0" y1="19" x2="213" y2="19" gradientUnits="userSpaceOnUse">
<stop stop-color="#FC08EA"/>
<stop offset="1" stop-color="#6A08FC"/>
</linearGradient>
<linearGradient id="paint2_linear_1314_162" x1="0" y1="19" x2="213" y2="19" gradientUnits="userSpaceOnUse">
<stop stop-color="#FC08EA"/>
<stop offset="1" stop-color="#6A08FC"/>
</linearGradient>
<linearGradient id="paint3_linear_1314_162" x1="0" y1="19" x2="213" y2="19" gradientUnits="userSpaceOnUse">
<stop stop-color="#FC08EA"/>
<stop offset="1" stop-color="#6A08FC"/>
</linearGradient>
<linearGradient id="paint4_linear_1314_162" x1="0" y1="19" x2="213" y2="19" gradientUnits="userSpaceOnUse">
<stop stop-color="#FC08EA"/>
<stop offset="1" stop-color="#6A08FC"/>
</linearGradient>
<linearGradient id="paint5_linear_1314_162" x1="0" y1="19" x2="213" y2="19" gradientUnits="userSpaceOnUse">
<stop stop-color="#FC08EA"/>
<stop offset="1" stop-color="#6A08FC"/>
</linearGradient>
<linearGradient id="paint6_linear_1314_162" x1="0" y1="19" x2="213" y2="19" gradientUnits="userSpaceOnUse">
<stop stop-color="#FC08EA"/>
<stop offset="1" stop-color="#6A08FC"/>
</linearGradient>
<linearGradient id="paint7_linear_1314_162" x1="0" y1="19" x2="213" y2="19" gradientUnits="userSpaceOnUse">
<stop stop-color="#FC08EA"/>
<stop offset="1" stop-color="#6A08FC"/>
</linearGradient>
</defs>
</svg>
