<svg width="162" height="30" viewBox="0 0 162 30" fill="none" xmlns="http://www.w3.org/2000/svg">
<path d="M162 25.4307C162 27.9194 160.084 29.937 157.72 29.937C155.355 29.937 153.439 27.9194 153.439 25.4307C153.439 22.9419 155.355 20.9244 157.72 20.9244C160.084 20.9244 162 22.9419 162 25.4307Z" fill="url(#paint0_linear_2931_1325)"/>
<path d="M75.9712 15.0315C75.9712 17.5203 74.0547 19.5378 71.6907 19.5378C69.3266 19.5378 67.4102 17.5203 67.4102 15.0315C67.4102 12.5427 69.3266 10.5252 71.6907 10.5252C74.0547 10.5252 75.9712 12.5427 75.9712 15.0315Z" fill="url(#paint1_linear_2931_1325)"/>
<path d="M119.349 0.968004C119.616 0.532307 119.987 0.227286 120.463 0.0532767C120.546 0.0229497 120.845 0.00637121 121.127 0.0164128C121.576 0.0325198 121.686 0.0627796 122.021 0.262466C122.449 0.517818 122.683 0.797837 122.923 1.34204L123.086 1.7127V28.2656L122.923 28.6363C122.683 29.1788 122.449 29.4596 122.021 29.7194C121.659 29.9387 121.609 29.9505 121.036 29.9505C120.517 29.9505 120.396 29.9283 120.164 29.7899C119.742 29.5388 119.573 29.377 119.349 29.0103C118.924 28.3147 118.956 28.8304 118.956 15.1576C118.956 2.15884 118.924 1.66364 119.349 0.968004Z" fill="url(#paint2_linear_2931_1325)"/>
<path d="M30.2909 11.2801C31.7896 5.10348 36.9076 0.603043 43.0128 0.0932319C43.3585 0.0643664 44.0051 0.054408 44.4496 0.0711727C47.348 0.180332 49.9106 1.14487 52.2596 3.01079C52.9548 3.56308 54.2274 4.92972 54.7954 5.73392C55.3871 6.57172 55.5436 6.95409 55.5436 7.56166C55.5436 8.42434 55.1346 9.11693 54.4005 9.49735C54.0479 9.68019 53.9444 9.70432 53.5207 9.70275C52.7093 9.69972 52.2086 9.3788 51.6084 8.47716C50.7901 7.24773 49.5201 6.1122 48.1913 5.42182C46.9019 4.75199 45.8311 4.46485 44.3897 4.40233C39.5724 4.19334 35.2455 7.71537 34.1878 12.7063C33.3851 16.4945 34.6285 20.5041 37.3867 23.0217C41.7747 27.0269 48.236 26.3984 51.5613 21.6429C52.2298 20.6869 52.5966 20.4174 53.3268 20.3456C54.1584 20.2638 54.9629 20.7325 55.3452 21.5214C55.4078 21.6506 55.4907 21.9376 55.5294 22.159C55.6677 22.9507 55.3792 23.6031 54.2755 24.9947C52.3009 27.4844 49.5349 29.1554 46.3354 29.7913C45.7027 29.9171 45.4276 29.9342 44.0305 29.9342C42.2799 29.9343 41.6007 29.8478 40.2767 29.4564C35.4552 28.0312 31.6562 24.038 30.3495 19.0217C29.9607 17.5293 29.8756 16.8209 29.8737 15.0617C29.8718 13.3101 29.933 12.7549 30.2909 11.2801Z" fill="url(#paint3_linear_2931_1325)"/>
<path d="M125.779 11.2801C127.277 5.10348 132.395 0.603043 138.501 0.0932319C138.846 0.0643664 139.493 0.054408 139.937 0.0711727C142.836 0.180332 145.398 1.14487 147.747 3.01079C148.443 3.56308 149.715 4.92972 150.283 5.73392C150.875 6.57172 151.031 6.95409 151.031 7.56166C151.031 8.42434 150.622 9.11693 149.888 9.49735C149.536 9.68019 149.432 9.70432 149.008 9.70275C148.197 9.69972 147.696 9.3788 147.096 8.47716C146.278 7.24773 145.008 6.1122 143.679 5.42182C142.39 4.75199 141.319 4.46485 139.878 4.40233C135.06 4.19334 130.733 7.71537 129.676 12.7063C128.873 16.4945 130.116 20.5041 132.875 23.0217C137.262 27.0269 143.724 26.3984 147.049 21.6429C147.718 20.6869 148.084 20.4174 148.815 20.3456C149.646 20.2638 150.451 20.7325 150.833 21.5214C150.896 21.6506 150.979 21.9376 151.017 22.159C151.155 22.9507 150.867 23.6031 149.763 24.9947C147.789 27.4844 145.023 29.1554 141.823 29.7913C141.191 29.9171 140.915 29.9342 139.518 29.9342C137.768 29.9343 137.089 29.8478 135.764 29.4564C130.943 28.0312 127.144 24.038 125.837 19.0217C125.449 17.5293 125.363 16.8209 125.361 15.0617C125.36 13.3101 125.421 12.7549 125.779 11.2801Z" fill="url(#paint4_linear_2931_1325)"/>
<path d="M5.64829 3.09386C7.86594 1.33811 10.398 0.328319 13.1616 0.0975211C14.358 -0.0023739 15.9209 0.118886 17.1487 0.406912C20.5119 1.19586 23.5335 3.41164 25.4502 6.49452C26.2389 7.76302 26.9904 9.64363 27.2888 11.0954C27.6198 12.7053 27.6978 14.5992 27.4606 15.2664C27.3057 15.7022 26.8639 16.1945 26.4221 16.4234L26.1228 16.5785H10.4376L10.0995 16.4117C9.66896 16.1991 9.30137 15.8122 9.0995 15.3589C8.96689 15.0612 8.94097 14.9151 8.94097 14.4659C8.94097 13.9859 8.96193 13.884 9.13805 13.5074C9.35238 13.049 9.65865 12.7289 10.1038 12.498L10.3778 12.3559L16.8584 12.3393C20.4227 12.3301 23.339 12.2996 23.339 12.2714C23.339 12.1126 22.957 10.8278 22.7739 10.3706C21.9243 8.24952 20.2959 6.43363 18.3401 5.42618C17.0462 4.75975 16.0205 4.47809 14.6228 4.40542C12.5147 4.29576 10.3821 4.92891 8.57638 6.20038C6.70183 7.52044 5.26849 9.52521 4.58098 11.7886C4.21023 13.0092 4.15227 13.4475 4.15192 15.0344C4.15168 16.2816 4.16844 16.5351 4.29099 17.1381C4.9585 20.4212 6.95686 23.1332 9.77911 24.586C12.7404 26.1104 16.2846 26.0277 19.427 24.3609C20.5771 23.7509 21.2351 23.2389 22.2913 22.1323C23.3819 20.9896 23.582 20.867 24.3567 20.867C24.7803 20.867 24.9223 20.8947 25.2037 21.0325C25.6155 21.2341 25.9734 21.5993 26.1947 22.0438C26.3417 22.3392 26.3606 22.4446 26.3614 22.9756C26.3626 23.8181 26.2325 24.0769 25.2941 25.0991C22.7769 27.8405 19.5131 29.4976 15.8147 29.9118C14.9328 30.0106 12.7282 29.9571 11.9643 29.8184C9.59143 29.3875 7.51488 28.4433 5.59441 26.9219C2.46726 24.4445 0.453813 20.6219 0.0467173 16.3895C-0.0483514 15.4011 0.00691026 13.6637 0.165019 12.671C0.780571 8.80634 2.72702 5.40664 5.64829 3.09386Z" fill="url(#paint5_linear_2931_1325)"/>
<path fill-rule="evenodd" clip-rule="evenodd" d="M71.7206 29.937C79.3914 29.937 85.6098 23.2495 85.6098 15C85.6098 6.75054 79.3914 0.0630252 71.7206 0.0630252C64.0499 0.0630252 57.8315 6.75054 57.8315 15C57.8315 23.2495 64.0499 29.937 71.7206 29.937ZM71.7206 25.5882C77.1431 25.5882 81.5388 20.8477 81.5388 15C81.5388 9.15228 77.1431 4.41176 71.7206 4.41176C66.2982 4.41176 61.9024 9.15228 61.9024 15C61.9024 20.8477 66.2982 25.5882 71.7206 25.5882Z" fill="url(#paint6_linear_2931_1325)"/>
<path d="M116.068 14.1987C116.06 13.4152 116.047 12.945 116.03 12.7689C115.719 9.48142 114.366 6.48618 112.132 4.14026C109.666 1.55086 106.534 0.129154 103.037 0.0118424C102.772 0.00294544 102.48 -0.00101297 102.253 0.000220076C102.026 -0.00101297 101.734 0.00294544 101.469 0.0118424C97.9718 0.129154 94.8398 1.55086 92.3738 4.14026C90.1398 6.48618 88.7865 9.48142 88.4753 12.7689C88.4586 12.945 88.446 13.4152 88.4374 14.1986C88.4278 14.4552 88.4235 14.7277 88.4235 15.0284C88.4235 15.1635 88.4251 15.2981 88.4283 15.4322C88.4221 16.7609 88.4219 18.5892 88.4277 20.9542L88.446 28.4442L88.6236 28.8136C89.1005 29.8058 90.2127 30.2526 91.2189 29.856C91.6927 29.6693 92.1898 29.1458 92.3671 28.6467L92.4945 28.2883V14.8109H92.5299C92.5656 12.8405 93.121 10.899 94.1703 9.19769C95.975 6.2716 99.0049 4.4707 102.253 4.34596C105.501 4.4707 108.531 6.2716 110.335 9.19769C111.385 10.899 111.94 12.8405 111.976 14.8109H112.011V28.2883L112.138 28.6467C112.316 29.1458 112.813 29.6693 113.287 29.856C114.293 30.2526 115.405 29.8058 115.882 28.8136L116.06 28.4442L116.078 20.9542C116.084 18.5892 116.083 16.7609 116.077 15.4322C116.08 15.2981 116.082 15.1635 116.082 15.0284C116.082 14.7277 116.078 14.4552 116.068 14.1987Z" fill="url(#paint7_linear_2931_1325)"/>
<defs>
<linearGradient id="paint0_linear_2931_1325" x1="0" y1="15" x2="162" y2="15" gradientUnits="userSpaceOnUse">
<stop stop-color="#FC08EA"/>
<stop offset="1" stop-color="#6A08FC"/>
</linearGradient>
<linearGradient id="paint1_linear_2931_1325" x1="0" y1="15" x2="162" y2="15" gradientUnits="userSpaceOnUse">
<stop stop-color="#FC08EA"/>
<stop offset="1" stop-color="#6A08FC"/>
</linearGradient>
<linearGradient id="paint2_linear_2931_1325" x1="0" y1="15" x2="162" y2="15" gradientUnits="userSpaceOnUse">
<stop stop-color="#FC08EA"/>
<stop offset="1" stop-color="#6A08FC"/>
</linearGradient>
<linearGradient id="paint3_linear_2931_1325" x1="0" y1="15" x2="162" y2="15" gradientUnits="userSpaceOnUse">
<stop stop-color="#FC08EA"/>
<stop offset="1" stop-color="#6A08FC"/>
</linearGradient>
<linearGradient id="paint4_linear_2931_1325" x1="0" y1="15" x2="162" y2="15" gradientUnits="userSpaceOnUse">
<stop stop-color="#FC08EA"/>
<stop offset="1" stop-color="#6A08FC"/>
</linearGradient>
<linearGradient id="paint5_linear_2931_1325" x1="0" y1="15" x2="162" y2="15" gradientUnits="userSpaceOnUse">
<stop stop-color="#FC08EA"/>
<stop offset="1" stop-color="#6A08FC"/>
</linearGradient>
<linearGradient id="paint6_linear_2931_1325" x1="0" y1="15" x2="162" y2="15" gradientUnits="userSpaceOnUse">
<stop stop-color="#FC08EA"/>
<stop offset="1" stop-color="#6A08FC"/>
</linearGradient>
<linearGradient id="paint7_linear_2931_1325" x1="0" y1="15" x2="162" y2="15" gradientUnits="userSpaceOnUse">
<stop stop-color="#FC08EA"/>
<stop offset="1" stop-color="#6A08FC"/>
</linearGradient>
</defs>
</svg>
