<svg width="22" height="20" viewBox="0 0 22 20" fill="none" xmlns="http://www.w3.org/2000/svg">
<path d="M7.52399 16.104C7.52399 16.1867 7.42661 16.2529 7.30383 16.2529C7.16411 16.2653 7.06673 16.1991 7.06673 16.104C7.06673 16.0213 7.16411 15.9551 7.2869 15.9551C7.41391 15.9427 7.52399 16.0089 7.52399 16.104ZM6.20726 15.9179C6.17762 16.0006 6.2623 16.0957 6.38931 16.1205C6.4994 16.1619 6.62641 16.1205 6.65181 16.0378C6.67722 15.9551 6.59677 15.86 6.46976 15.8228C6.35968 15.7938 6.2369 15.8352 6.20726 15.9179ZM8.07863 15.8476C7.95585 15.8765 7.87117 15.9551 7.88387 16.0502C7.89657 16.1329 8.00665 16.1867 8.13367 16.1577C8.25645 16.1288 8.34113 16.0502 8.32843 15.9675C8.31573 15.8889 8.20141 15.8352 8.07863 15.8476ZM10.8645 0C4.99214 0 0.5 4.35477 0.5 10.0908C0.5 14.6772 3.45524 18.6019 7.67641 19.9832C8.21835 20.0783 8.40887 19.7516 8.40887 19.4827C8.40887 19.2263 8.39617 17.812 8.39617 16.9435C8.39617 16.9435 5.43246 17.5638 4.81008 15.7111C4.81008 15.7111 4.32742 14.5076 3.63306 14.1975C3.63306 14.1975 2.66351 13.5482 3.70081 13.5606C3.70081 13.5606 4.75504 13.6433 5.33508 14.6276C6.2623 16.2239 7.81613 15.7649 8.42157 15.4919C8.51895 14.8302 8.79415 14.3712 9.09899 14.0982C6.73226 13.8418 4.34436 13.5068 4.34436 9.52839C4.34436 8.3911 4.66613 7.82039 5.34355 7.09253C5.23347 6.82372 4.87359 5.71538 5.45363 4.28447C6.33851 4.01565 8.375 5.40108 8.375 5.40108C9.22177 5.16948 10.1321 5.04955 11.0339 5.04955C11.9357 5.04955 12.846 5.16948 13.6927 5.40108C13.6927 5.40108 15.7292 4.01152 16.6141 4.28447C17.1942 5.71951 16.8343 6.82372 16.7242 7.09253C17.4016 7.82453 17.8165 8.39524 17.8165 9.52839C17.8165 13.5192 15.3228 13.8377 12.956 14.0982C13.3456 14.4249 13.6758 15.0453 13.6758 16.0171C13.6758 17.4108 13.6631 19.1354 13.6631 19.4745C13.6631 19.7433 13.8579 20.07 14.3956 19.9749C18.6294 18.6019 21.5 14.6772 21.5 10.0908C21.5 4.35477 16.7369 0 10.8645 0ZM4.61532 14.2636C4.56028 14.305 4.57298 14.4001 4.64496 14.4787C4.7127 14.5449 4.81008 14.5738 4.86512 14.52C4.92016 14.4787 4.90746 14.3836 4.83548 14.305C4.76774 14.2388 4.67036 14.2099 4.61532 14.2636ZM4.15806 13.9287C4.12843 13.9824 4.17077 14.0486 4.25544 14.0899C4.32319 14.1313 4.40786 14.1189 4.4375 14.061C4.46714 14.0072 4.4248 13.9411 4.34012 13.8997C4.25544 13.8749 4.1877 13.8873 4.15806 13.9287ZM5.52984 15.4009C5.4621 15.4547 5.4875 15.5788 5.58488 15.6573C5.68226 15.7524 5.80504 15.7649 5.86008 15.6987C5.91512 15.6449 5.88972 15.5209 5.80504 15.4423C5.7119 15.3472 5.58488 15.3348 5.52984 15.4009ZM5.04718 14.793C4.97944 14.8343 4.97944 14.9419 5.04718 15.037C5.11492 15.1321 5.22923 15.1735 5.28427 15.1321C5.35202 15.0783 5.35202 14.9708 5.28427 14.8757C5.225 14.7806 5.11492 14.7392 5.04718 14.793Z" fill="white"/>
</svg>
