<svg width="25" height="18" viewBox="0 0 25 18" fill="none" xmlns="http://www.w3.org/2000/svg">
<g clip-path="url(#clip0_2931_1339)">
<path d="M16.4982 8.73495C14.3037 7.56086 12.2025 6.48146 10.0547 5.35449V12.0963C12.3149 10.8662 14.6971 9.73967 16.5075 8.73495H16.4982Z" fill="white"/>
<path d="M16.4982 8.73495C14.3037 7.56086 10.0547 5.35449 10.0547 5.35449L15.7198 9.16663C15.7198 9.16663 14.6878 9.73967 16.4982 8.73495Z" fill="#E8E0E0"/>
<path d="M10.467 17.3735C5.90889 17.2895 4.35208 17.2139 3.39517 17.0165C2.74776 16.8854 2.18516 16.5942 1.77264 16.1718C1.45382 15.8522 1.20027 15.3645 1.00356 14.6879C0.834829 14.1242 0.76911 13.6552 0.675418 12.5095C0.531992 9.92394 0.497801 7.81004 0.675418 5.44807C0.821951 4.14372 0.892998 2.59531 1.86634 1.69195C2.32592 1.26917 2.86055 0.997101 3.46089 0.884627C4.39871 0.706357 8.39419 0.56543 12.5304 0.56543C16.6574 0.56543 20.6617 0.706357 21.6004 0.884627C22.3504 1.02555 23.0538 1.44789 23.4667 1.99248C24.3548 3.39108 24.3704 5.13021 24.4605 6.49057C24.4978 7.13875 24.4978 10.8193 24.4605 11.4675C24.3202 13.6174 24.2074 14.378 23.8886 15.1667C23.6914 15.6646 23.5231 15.9273 23.2318 16.2185C22.775 16.6666 22.1926 16.9647 21.5622 17.073C17.6178 17.3699 14.2684 17.4344 10.467 17.3735ZM16.5073 8.73473C14.3128 7.56064 12.2116 6.4719 10.0638 5.34493V12.0872C12.324 10.8571 14.7067 9.73011 16.5166 8.72539L16.5073 8.73473Z" fill="#CD201F"/>
</g>
<defs>
<clipPath id="clip0_2931_1339">
<rect width="24" height="16.8774" fill="white" transform="translate(0.5 0.561523)"/>
</clipPath>
</defs>
</svg>
